<svg xmlns="http://www.w3.org/2000/svg" width="1920" height="1000" viewBox="0 0 1920 1000" role="img">
  <defs>
    <linearGradient id="sheen" x1="0.88" y1="0" x2="0.2" y2="1">
      <stop offset="0%" stop-color="#FFFFFF" stop-opacity="0.22"/>
      <stop offset="48%" stop-color="#FFFFFF" stop-opacity="0.04"/>
      <stop offset="100%" stop-color="#000000" stop-opacity="0.26"/>
    </linearGradient>
    <filter id="soften" x="-10%" y="-10%" width="120%" height="120%">
      <feGaussianBlur stdDeviation="23.04"/>
    </filter>
    <filter id="grain" x="0" y="0" width="100%" height="100%">
      <feTurbulence type="fractalNoise" baseFrequency="0.9" numOctaves="3" seed="73" result="n"/>
      <feColorMatrix type="saturate" values="0" in="n" result="g"/>
      <feComponentTransfer in="g" result="gt"><feFuncA type="linear" slope="0.18"/></feComponentTransfer>
      <feBlend in="SourceGraphic" in2="gt" mode="overlay"/>
    </filter>
  </defs>
  <g filter="url(#grain)">
    <rect width="1920" height="1000" fill="#0B0C11"/>
    <g filter="url(#soften)">
      <path d="M -192.0 108.2 C 576.0 -32.8 1344.0 249.2 2112.0 51.8 L 2112.0 1100.0 L -192.0 1100.0 Z" fill="#6F5834" opacity="0.44"/>
      <path d="M -192.0 293.5 C 576.0 230.3 1344.0 356.8 2112.0 268.2 L 2112.0 1100.0 L -192.0 1100.0 Z" fill="#6F5834" opacity="0.26"/>
      <path d="M -192.0 495.5 C 576.0 388.7 1344.0 602.2 2112.0 452.8 L 2112.0 1100.0 L -192.0 1100.0 Z" fill="#6F5834" opacity="0.39"/>
      <path d="M -192.0 673.8 C 576.0 531.1 1344.0 816.5 2112.0 616.7 L 2112.0 1100.0 L -192.0 1100.0 Z" fill="#6F5834" opacity="0.42"/>
    </g>
    <rect width="1920" height="1000" fill="url(#sheen)"/>
  </g>
</svg>
