<svg xmlns="http://www.w3.org/2000/svg" width="504.0" height="672.0" viewBox="273.0 196.0 504.0 672.0" role="img">
  <defs>
    <linearGradient id="cloth" x1="0.82" y1="0" x2="0.15" y2="1">
      <stop offset="0%" stop-color="#A88B6E" stop-opacity="1"/>
      <stop offset="46%" stop-color="#A88B6E" stop-opacity="0.82"/>
      <stop offset="100%" stop-color="#A88B6E" stop-opacity="0.52"/>
    </linearGradient>
    <linearGradient id="sheen" x1="0.9" y1="0.05" x2="0.35" y2="0.95">
      <stop offset="0%" stop-color="#FFFFFF" stop-opacity="0.34"/>
      <stop offset="30%" stop-color="#FFFFFF" stop-opacity="0.06"/>
      <stop offset="62%" stop-color="#FFFFFF" stop-opacity="0.16"/>
      <stop offset="100%" stop-color="#000000" stop-opacity="0.22"/>
    </linearGradient>
    <!-- The same satin, mapped to the CANVAS instead of to each shape's own
         box. The body wears this gradient stretched across the whole frame, so
         a strap wearing it stretched across its own few pixels gets the entire
         light-to-dark run compressed into itself, and comes out darker than the
         cloth it is sewn to — آذین's wide pair read as two epaulettes. Light
         falls on a garment from one direction, not from each piece's corner.
         NOTE: no backticks in here. This comment is inside a template literal. -->
    <linearGradient id="sheen-user" gradientUnits="userSpaceOnUse" x1="945.0" y1="70.0" x2="367.5" y2="1330.0">
      <stop offset="0%" stop-color="#FFFFFF" stop-opacity="0.34"/>
      <stop offset="30%" stop-color="#FFFFFF" stop-opacity="0.06"/>
      <stop offset="62%" stop-color="#FFFFFF" stop-opacity="0.16"/>
      <stop offset="100%" stop-color="#000000" stop-opacity="0.22"/>
    </linearGradient>
    <linearGradient id="fold" x1="0" y1="0" x2="0" y2="1">
      <stop offset="0%" stop-color="#FFFFFF" stop-opacity="0.26"/>
      <stop offset="70%" stop-color="#FFFFFF" stop-opacity="0.10"/>
      <stop offset="100%" stop-color="#FFFFFF" stop-opacity="0"/>
    </linearGradient>
    <radialGradient id="key" cx="80%" cy="10%" r="92%">
      <stop offset="0%" stop-color="#FFFFFF" stop-opacity="0.13"/>
      <stop offset="55%" stop-color="#FFFFFF" stop-opacity="0.03"/>
      <stop offset="100%" stop-color="#000000" stop-opacity="0.30"/>
    </radialGradient>
    <radialGradient id="floor" cx="50%" cy="50%" r="50%">
      <stop offset="0%" stop-color="#000000" stop-opacity="0.55"/>
      <stop offset="100%" stop-color="#000000" stop-opacity="0"/>
    </radialGradient>
    <clipPath id="body"><path d="M 760.6 175.0 C 718.2 219.7 595.7 224.3 525.0 190.4 C 454.3 224.3 331.8 219.7 289.4 175.0 C 308.2 504.0 357.6 574.0 365.6 630.0 C 325.8 825.6 288.0 1105.0 261.7 1328.6 Q 525.0 1377.6 788.3 1328.6 C 762.0 1105.0 724.2 825.6 684.4 630.0 C 692.4 574.0 741.8 504.0 760.6 175.0 Z"/></clipPath>
    <filter id="soften" x="-10%" y="-10%" width="120%" height="120%">
      <feGaussianBlur stdDeviation="1.68"/>
    </filter>
    <filter id="grain" x="0" y="0" width="100%" height="100%">
      <feTurbulence type="fractalNoise" baseFrequency="0.9" numOctaves="3" seed="153" result="n"/>
      <feColorMatrix type="saturate" values="0" in="n" result="g"/>
      <feComponentTransfer in="g" result="gt">
        <feFuncA type="linear" slope="0.18"/>
      </feComponentTransfer>
      <feBlend in="SourceGraphic" in2="gt" mode="overlay"/>
    </filter>
  </defs>

  <g filter="url(#grain)">
    <rect x="0" y="0" width="1050" height="1400" fill="#132318"/>

    <!-- The cloth the gown is standing on. -->
    <ellipse cx="525.0" cy="1351.0" rx="582.1" ry="44.8" fill="url(#floor)"/>

    <g filter="url(#soften)">
      <path d="M 380.2 1258.6 C 222.2 1314.6 169.5 1345.4 235.3 1365.0 C 327.5 1379.0 446.0 1370.6 525.0 1353.8 Z" fill="#A88B6E" opacity="0.55"/>
      
      <path d="M 760.6 175.0 C 718.2 219.7 595.7 224.3 525.0 190.4 C 454.3 224.3 331.8 219.7 289.4 175.0 C 308.2 504.0 357.6 574.0 365.6 630.0 C 325.8 825.6 288.0 1105.0 261.7 1328.6 Q 525.0 1377.6 788.3 1328.6 C 762.0 1105.0 724.2 825.6 684.4 630.0 C 692.4 574.0 741.8 504.0 760.6 175.0 Z" fill="url(#cloth)"/>

      <g clip-path="url(#body)">
        <path d="M 413.1 644.0 C 417.3 867.5 289.7 1047.9 293.9 1285.4" fill="none" stroke="url(#fold)" stroke-width="6.3" stroke-linecap="round"/>
      <path d="M 450.3 644.0 C 439.4 867.5 381.6 1061.0 370.7 1298.5" fill="none" stroke="url(#fold)" stroke-width="9.3" stroke-linecap="round"/>
      <path d="M 486.5 644.0 C 471.7 867.5 460.4 1026.8 445.6 1264.3" fill="none" stroke="url(#fold)" stroke-width="7.4" stroke-linecap="round"/>
      <path d="M 519.6 644.0 C 542.7 867.5 490.6 1012.9 513.8 1250.5" fill="none" stroke="url(#fold)" stroke-width="9.4" stroke-linecap="round"/>
      <path d="M 556.8 644.0 C 534.1 867.5 613.5 1000.8 590.8 1238.3" fill="none" stroke="url(#fold)" stroke-width="6.2" stroke-linecap="round"/>
      <path d="M 594.8 644.0 C 618.2 867.5 645.8 999.1 669.2 1236.6" fill="none" stroke="url(#fold)" stroke-width="5.6" stroke-linecap="round"/>
      <path d="M 640.3 644.0 C 649.8 867.5 753.7 978.8 763.2 1216.3" fill="none" stroke="url(#fold)" stroke-width="10.3" stroke-linecap="round"/>
        <circle cx="553.1" cy="357.0" r="2.35" fill="#FFFFFF" opacity="0.48"/>
      <circle cx="424.3" cy="526.5" r="3.84" fill="#FFFFFF" opacity="0.50"/>
      <circle cx="658.0" cy="487.1" r="2.88" fill="#FFFFFF" opacity="0.57"/>
      <circle cx="419.7" cy="330.2" r="2.26" fill="#FFFFFF" opacity="0.57"/>
      <circle cx="371.2" cy="409.6" r="3.96" fill="#FFFFFF" opacity="0.56"/>
      <circle cx="578.7" cy="573.6" r="3.22" fill="#FFFFFF" opacity="0.47"/>
      <circle cx="382.7" cy="466.8" r="2.58" fill="#FFFFFF" opacity="0.39"/>
      <circle cx="658.6" cy="241.4" r="3.82" fill="#FFFFFF" opacity="0.26"/>
      <circle cx="462.3" cy="268.7" r="1.90" fill="#FFFFFF" opacity="0.27"/>
      <circle cx="705.1" cy="260.1" r="2.96" fill="#FFFFFF" opacity="0.54"/>
      <circle cx="608.8" cy="444.7" r="1.71" fill="#FFFFFF" opacity="0.45"/>
      <circle cx="379.8" cy="299.7" r="1.77" fill="#FFFFFF" opacity="0.39"/>
      <circle cx="391.2" cy="259.7" r="1.97" fill="#FFFFFF" opacity="0.42"/>
      <circle cx="552.9" cy="405.2" r="3.49" fill="#FFFFFF" opacity="0.44"/>
      <circle cx="563.8" cy="487.0" r="3.15" fill="#FFFFFF" opacity="0.30"/>
      <circle cx="398.5" cy="627.8" r="1.92" fill="#FFFFFF" opacity="0.43"/>
      <circle cx="474.6" cy="436.7" r="3.31" fill="#FFFFFF" opacity="0.53"/>
      <circle cx="665.3" cy="361.8" r="2.18" fill="#FFFFFF" opacity="0.33"/>
      <circle cx="677.0" cy="241.9" r="2.86" fill="#FFFFFF" opacity="0.50"/>
      <circle cx="570.5" cy="376.5" r="2.67" fill="#FFFFFF" opacity="0.37"/>
      <circle cx="389.4" cy="288.7" r="3.33" fill="#FFFFFF" opacity="0.26"/>
      <circle cx="464.1" cy="285.9" r="3.81" fill="#FFFFFF" opacity="0.18"/>
      <circle cx="595.1" cy="353.6" r="2.98" fill="#FFFFFF" opacity="0.45"/>
      <circle cx="663.9" cy="420.0" r="2.71" fill="#FFFFFF" opacity="0.54"/>
      <circle cx="396.2" cy="581.2" r="2.69" fill="#FFFFFF" opacity="0.42"/>
      <circle cx="430.1" cy="415.5" r="3.61" fill="#FFFFFF" opacity="0.46"/>
      <circle cx="377.5" cy="461.1" r="3.23" fill="#FFFFFF" opacity="0.23"/>
      <circle cx="648.9" cy="500.2" r="3.26" fill="#FFFFFF" opacity="0.26"/>
      <circle cx="385.7" cy="500.3" r="2.03" fill="#FFFFFF" opacity="0.41"/>
      <circle cx="685.0" cy="350.2" r="3.16" fill="#FFFFFF" opacity="0.30"/>
      <circle cx="610.5" cy="612.4" r="3.02" fill="#FFFFFF" opacity="0.42"/>
      <circle cx="599.5" cy="214.5" r="2.06" fill="#FFFFFF" opacity="0.45"/>
      <circle cx="553.7" cy="348.7" r="4.20" fill="#FFFFFF" opacity="0.44"/>
      <circle cx="420.3" cy="465.7" r="1.69" fill="#FFFFFF" opacity="0.56"/>
      <circle cx="398.9" cy="543.8" r="3.72" fill="#FFFFFF" opacity="0.31"/>
      <circle cx="536.8" cy="429.9" r="3.78" fill="#FFFFFF" opacity="0.28"/>
      <circle cx="584.6" cy="397.6" r="2.83" fill="#FFFFFF" opacity="0.56"/>
      <circle cx="537.7" cy="339.1" r="3.77" fill="#FFFFFF" opacity="0.44"/>
      <circle cx="634.8" cy="241.0" r="2.71" fill="#FFFFFF" opacity="0.55"/>
      <circle cx="661.5" cy="427.8" r="3.19" fill="#FFFFFF" opacity="0.54"/>
      <circle cx="644.4" cy="593.5" r="3.68" fill="#FFFFFF" opacity="0.46"/>
      <circle cx="411.2" cy="590.3" r="2.38" fill="#FFFFFF" opacity="0.51"/>
      <circle cx="437.6" cy="498.7" r="3.74" fill="#FFFFFF" opacity="0.57"/>
      <circle cx="559.6" cy="598.8" r="3.66" fill="#FFFFFF" opacity="0.31"/>
      <circle cx="577.2" cy="264.4" r="2.22" fill="#FFFFFF" opacity="0.53"/>
      <circle cx="402.4" cy="453.8" r="3.00" fill="#FFFFFF" opacity="0.52"/>
      <circle cx="586.0" cy="492.5" r="2.77" fill="#FFFFFF" opacity="0.36"/>
      <circle cx="605.6" cy="442.0" r="3.08" fill="#FFFFFF" opacity="0.39"/>
      <circle cx="627.9" cy="388.4" r="2.31" fill="#FFFFFF" opacity="0.48"/>
      <circle cx="461.7" cy="473.5" r="3.97" fill="#FFFFFF" opacity="0.46"/>
      <circle cx="658.6" cy="474.3" r="3.90" fill="#FFFFFF" opacity="0.38"/>
      <circle cx="631.4" cy="405.8" r="4.23" fill="#FFFFFF" opacity="0.28"/>
      <circle cx="440.1" cy="311.2" r="1.98" fill="#FFFFFF" opacity="0.33"/>
      <circle cx="603.0" cy="501.9" r="4.20" fill="#FFFFFF" opacity="0.32"/>
      <circle cx="629.6" cy="624.8" r="2.40" fill="#FFFFFF" opacity="0.50"/>
      <circle cx="641.1" cy="313.5" r="3.35" fill="#FFFFFF" opacity="0.47"/>
      <circle cx="579.7" cy="441.1" r="3.87" fill="#FFFFFF" opacity="0.29"/>
      <circle cx="388.8" cy="259.8" r="2.60" fill="#FFFFFF" opacity="0.40"/>
      <circle cx="689.3" cy="332.6" r="3.36" fill="#FFFFFF" opacity="0.29"/>
      <circle cx="450.8" cy="350.7" r="3.30" fill="#FFFFFF" opacity="0.19"/>
      <circle cx="580.0" cy="248.0" r="3.78" fill="#FFFFFF" opacity="0.52"/>
      <circle cx="556.9" cy="324.3" r="3.09" fill="#FFFFFF" opacity="0.27"/>
      <circle cx="677.8" cy="463.1" r="2.04" fill="#FFFFFF" opacity="0.39"/>
      <circle cx="458.8" cy="345.0" r="2.09" fill="#FFFFFF" opacity="0.49"/>
      <circle cx="603.6" cy="531.5" r="3.82" fill="#FFFFFF" opacity="0.21"/>
      <circle cx="652.8" cy="554.0" r="3.13" fill="#FFFFFF" opacity="0.20"/>
      <circle cx="469.2" cy="502.5" r="2.48" fill="#FFFFFF" opacity="0.39"/>
      <circle cx="585.7" cy="326.2" r="3.32" fill="#FFFFFF" opacity="0.47"/>
      <circle cx="574.6" cy="565.4" r="3.71" fill="#FFFFFF" opacity="0.19"/>
      <circle cx="604.8" cy="222.5" r="4.14" fill="#FFFFFF" opacity="0.24"/>
      <circle cx="645.2" cy="399.6" r="3.36" fill="#FFFFFF" opacity="0.20"/>
      <circle cx="665.6" cy="232.6" r="2.01" fill="#FFFFFF" opacity="0.24"/>
      <circle cx="393.3" cy="366.3" r="2.96" fill="#FFFFFF" opacity="0.33"/>
      <circle cx="387.2" cy="286.5" r="2.81" fill="#FFFFFF" opacity="0.36"/>
      <circle cx="423.3" cy="272.0" r="2.89" fill="#FFFFFF" opacity="0.33"/>
      <circle cx="426.4" cy="471.8" r="3.20" fill="#FFFFFF" opacity="0.42"/>
      <circle cx="686.2" cy="399.7" r="3.17" fill="#FFFFFF" opacity="0.21"/>
      <circle cx="450.6" cy="531.0" r="4.19" fill="#FFFFFF" opacity="0.37"/>
      <circle cx="571.4" cy="539.6" r="3.82" fill="#FFFFFF" opacity="0.46"/>
      <circle cx="599.0" cy="345.9" r="2.31" fill="#FFFFFF" opacity="0.34"/>
      <circle cx="514.7" cy="432.9" r="1.96" fill="#FFFFFF" opacity="0.50"/>
      <circle cx="390.0" cy="555.9" r="2.14" fill="#FFFFFF" opacity="0.46"/>
      <circle cx="430.9" cy="350.2" r="1.97" fill="#FFFFFF" opacity="0.52"/>
      <circle cx="526.4" cy="320.0" r="3.77" fill="#FFFFFF" opacity="0.22"/>
      <circle cx="669.7" cy="521.8" r="3.44" fill="#FFFFFF" opacity="0.40"/>
      <circle cx="468.1" cy="337.0" r="3.35" fill="#FFFFFF" opacity="0.27"/>
      <circle cx="630.9" cy="274.6" r="2.12" fill="#FFFFFF" opacity="0.45"/>
      <circle cx="538.9" cy="447.6" r="4.10" fill="#FFFFFF" opacity="0.26"/>
      <circle cx="481.5" cy="291.1" r="4.07" fill="#FFFFFF" opacity="0.30"/>
      <circle cx="376.0" cy="359.1" r="2.22" fill="#FFFFFF" opacity="0.32"/>
      <circle cx="388.7" cy="305.4" r="3.82" fill="#FFFFFF" opacity="0.51"/>
      <circle cx="633.4" cy="504.0" r="2.32" fill="#FFFFFF" opacity="0.46"/>
      <circle cx="648.4" cy="348.2" r="2.97" fill="#FFFFFF" opacity="0.35"/>
      <circle cx="415.5" cy="468.8" r="2.28" fill="#FFFFFF" opacity="0.19"/>
      <circle cx="663.5" cy="417.2" r="3.64" fill="#FFFFFF" opacity="0.22"/>
      <circle cx="549.4" cy="546.9" r="2.21" fill="#FFFFFF" opacity="0.37"/>
      <circle cx="398.3" cy="281.6" r="4.24" fill="#FFFFFF" opacity="0.31"/>
      <circle cx="573.9" cy="434.5" r="1.94" fill="#FFFFFF" opacity="0.41"/>
      <circle cx="691.8" cy="273.0" r="2.84" fill="#FFFFFF" opacity="0.24"/>
      <circle cx="654.2" cy="622.8" r="3.53" fill="#FFFFFF" opacity="0.21"/>
      <circle cx="532.1" cy="502.8" r="2.76" fill="#FFFFFF" opacity="0.58"/>
      <circle cx="627.6" cy="507.2" r="2.22" fill="#FFFFFF" opacity="0.24"/>
      <circle cx="339.3" cy="212.0" r="4.10" fill="#FFFFFF" opacity="0.56"/>
      <circle cx="549.2" cy="473.3" r="4.32" fill="#FFFFFF" opacity="0.25"/>
      <circle cx="657.5" cy="244.4" r="2.77" fill="#FFFFFF" opacity="0.42"/>
      <circle cx="425.5" cy="272.8" r="3.49" fill="#FFFFFF" opacity="0.29"/>
      <circle cx="398.3" cy="528.5" r="2.86" fill="#FFFFFF" opacity="0.37"/>
      <circle cx="417.5" cy="522.5" r="3.06" fill="#FFFFFF" opacity="0.22"/>
      <circle cx="596.1" cy="255.4" r="3.73" fill="#FFFFFF" opacity="0.58"/>
      <circle cx="562.6" cy="493.4" r="2.22" fill="#FFFFFF" opacity="0.37"/>
      <circle cx="441.6" cy="324.8" r="3.16" fill="#FFFFFF" opacity="0.23"/>
      <circle cx="625.1" cy="302.8" r="3.64" fill="#FFFFFF" opacity="0.36"/>
      <circle cx="465.4" cy="373.2" r="2.54" fill="#FFFFFF" opacity="0.31"/>
      <circle cx="425.8" cy="252.0" r="4.14" fill="#FFFFFF" opacity="0.53"/>
      <circle cx="345.7" cy="206.4" r="3.49" fill="#FFFFFF" opacity="0.33"/>
      <circle cx="365.1" cy="296.0" r="3.95" fill="#FFFFFF" opacity="0.45"/>
      <circle cx="623.2" cy="510.4" r="3.92" fill="#FFFFFF" opacity="0.40"/>
      <circle cx="581.8" cy="501.8" r="1.87" fill="#FFFFFF" opacity="0.42"/>
      <circle cx="393.6" cy="280.5" r="1.73" fill="#FFFFFF" opacity="0.33"/>
      <circle cx="682.3" cy="358.6" r="3.51" fill="#FFFFFF" opacity="0.41"/>
      <circle cx="409.5" cy="361.5" r="3.56" fill="#FFFFFF" opacity="0.20"/>
      <circle cx="399.5" cy="356.5" r="1.73" fill="#FFFFFF" opacity="0.39"/>
      <circle cx="604.9" cy="289.4" r="2.85" fill="#FFFFFF" opacity="0.32"/>
      <circle cx="356.5" cy="282.8" r="3.00" fill="#FFFFFF" opacity="0.54"/>
      <circle cx="418.0" cy="390.5" r="3.96" fill="#FFFFFF" opacity="0.24"/>
      <circle cx="433.6" cy="213.2" r="4.08" fill="#FFFFFF" opacity="0.46"/>
      <circle cx="493.7" cy="598.0" r="1.97" fill="#FFFFFF" opacity="0.33"/>
      <circle cx="494.1" cy="356.4" r="3.71" fill="#FFFFFF" opacity="0.56"/>
      <circle cx="611.6" cy="256.2" r="3.01" fill="#FFFFFF" opacity="0.47"/>
      <circle cx="499.2" cy="604.2" r="2.84" fill="#FFFFFF" opacity="0.57"/>
      <circle cx="457.7" cy="619.3" r="3.02" fill="#FFFFFF" opacity="0.48"/>
      <circle cx="666.9" cy="215.6" r="4.35" fill="#FFFFFF" opacity="0.20"/>
      <circle cx="612.1" cy="226.4" r="4.38" fill="#FFFFFF" opacity="0.46"/>
      <circle cx="544.9" cy="622.9" r="4.09" fill="#FFFFFF" opacity="0.42"/>
      <circle cx="336.5" cy="228.6" r="1.80" fill="#FFFFFF" opacity="0.46"/>
      <circle cx="683.2" cy="259.0" r="3.21" fill="#FFFFFF" opacity="0.24"/>
      <circle cx="423.7" cy="457.8" r="3.38" fill="#FFFFFF" opacity="0.45"/>
      <circle cx="536.3" cy="619.1" r="3.68" fill="#FFFFFF" opacity="0.45"/>
      <circle cx="698.5" cy="324.1" r="1.87" fill="#FFFFFF" opacity="0.51"/>
      <circle cx="635.8" cy="500.7" r="3.17" fill="#FFFFFF" opacity="0.36"/>
      <circle cx="435.0" cy="275.1" r="2.83" fill="#FFFFFF" opacity="0.37"/>
      <circle cx="626.1" cy="624.5" r="3.16" fill="#FFFFFF" opacity="0.50"/>
      <circle cx="447.2" cy="398.4" r="3.11" fill="#FFFFFF" opacity="0.48"/>
      <circle cx="646.9" cy="276.0" r="2.92" fill="#FFFFFF" opacity="0.53"/>
      <circle cx="488.1" cy="439.6" r="4.32" fill="#FFFFFF" opacity="0.45"/>
      <circle cx="390.7" cy="485.8" r="3.75" fill="#FFFFFF" opacity="0.43"/>
      <circle cx="565.1" cy="379.8" r="3.95" fill="#FFFFFF" opacity="0.46"/>
      <circle cx="631.9" cy="510.5" r="1.98" fill="#FFFFFF" opacity="0.45"/>
      <circle cx="446.4" cy="293.4" r="2.30" fill="#FFFFFF" opacity="0.25"/>
      <circle cx="510.8" cy="425.8" r="3.13" fill="#FFFFFF" opacity="0.33"/>
      <circle cx="595.1" cy="338.8" r="3.57" fill="#FFFFFF" opacity="0.55"/>
      <circle cx="672.1" cy="436.9" r="2.90" fill="#FFFFFF" opacity="0.57"/>
      <circle cx="376.1" cy="455.3" r="2.62" fill="#FFFFFF" opacity="0.50"/>
      <circle cx="516.1" cy="322.1" r="3.11" fill="#FFFFFF" opacity="0.39"/>
      <circle cx="403.8" cy="621.5" r="4.13" fill="#FFFFFF" opacity="0.35"/>
      <circle cx="411.0" cy="291.0" r="2.53" fill="#FFFFFF" opacity="0.32"/>
      <circle cx="395.8" cy="391.7" r="2.93" fill="#FFFFFF" opacity="0.51"/>
      <circle cx="551.7" cy="268.1" r="3.64" fill="#FFFFFF" opacity="0.24"/>
      <circle cx="386.1" cy="275.1" r="2.08" fill="#FFFFFF" opacity="0.35"/>
      <circle cx="569.6" cy="590.9" r="2.44" fill="#FFFFFF" opacity="0.34"/>
      <circle cx="534.2" cy="258.4" r="3.11" fill="#FFFFFF" opacity="0.41"/>
      <circle cx="464.9" cy="279.2" r="2.35" fill="#FFFFFF" opacity="0.46"/>
      <circle cx="508.8" cy="597.4" r="4.00" fill="#FFFFFF" opacity="0.55"/>
      <circle cx="580.6" cy="562.3" r="2.99" fill="#FFFFFF" opacity="0.29"/>
      <circle cx="605.8" cy="606.9" r="2.00" fill="#FFFFFF" opacity="0.55"/>
      <circle cx="536.1" cy="426.1" r="2.16" fill="#FFFFFF" opacity="0.36"/>
      <circle cx="548.0" cy="573.0" r="4.25" fill="#FFFFFF" opacity="0.32"/>
      <circle cx="623.6" cy="407.2" r="2.74" fill="#FFFFFF" opacity="0.30"/>
      <circle cx="385.6" cy="382.8" r="2.33" fill="#FFFFFF" opacity="0.55"/>
      <circle cx="437.5" cy="541.7" r="2.64" fill="#FFFFFF" opacity="0.23"/>
      <circle cx="450.3" cy="422.9" r="3.62" fill="#FFFFFF" opacity="0.58"/>
      <circle cx="600.6" cy="583.2" r="3.47" fill="#FFFFFF" opacity="0.35"/>
      <circle cx="428.1" cy="475.5" r="2.10" fill="#FFFFFF" opacity="0.31"/>
      <circle cx="578.2" cy="353.8" r="2.18" fill="#FFFFFF" opacity="0.32"/>
      <circle cx="500.9" cy="457.0" r="3.27" fill="#FFFFFF" opacity="0.47"/>
      <circle cx="623.1" cy="228.8" r="4.16" fill="#FFFFFF" opacity="0.54"/>
      <circle cx="575.2" cy="435.2" r="2.14" fill="#FFFFFF" opacity="0.23"/>
      <circle cx="564.4" cy="473.4" r="2.97" fill="#FFFFFF" opacity="0.34"/>
      <circle cx="435.6" cy="353.4" r="4.31" fill="#FFFFFF" opacity="0.33"/>
      <circle cx="454.2" cy="286.3" r="3.26" fill="#FFFFFF" opacity="0.51"/>
      <circle cx="649.6" cy="314.8" r="2.98" fill="#FFFFFF" opacity="0.27"/>
      <circle cx="447.5" cy="392.5" r="2.28" fill="#FFFFFF" opacity="0.40"/>
      <circle cx="452.2" cy="573.0" r="1.76" fill="#FFFFFF" opacity="0.36"/>
      <circle cx="498.6" cy="218.7" r="3.57" fill="#FFFFFF" opacity="0.43"/>
      <circle cx="685.2" cy="375.8" r="4.26" fill="#FFFFFF" opacity="0.53"/>
      <circle cx="427.4" cy="325.8" r="2.87" fill="#FFFFFF" opacity="0.49"/>
      <circle cx="468.2" cy="357.6" r="3.17" fill="#FFFFFF" opacity="0.42"/>
      <circle cx="594.4" cy="278.4" r="3.58" fill="#FFFFFF" opacity="0.47"/>
      <circle cx="411.8" cy="368.5" r="4.27" fill="#FFFFFF" opacity="0.30"/>
      <circle cx="589.0" cy="490.0" r="4.32" fill="#FFFFFF" opacity="0.31"/>
      <circle cx="651.0" cy="425.8" r="3.56" fill="#FFFFFF" opacity="0.30"/>
      <circle cx="433.1" cy="359.6" r="2.44" fill="#FFFFFF" opacity="0.19"/>
      <circle cx="534.8" cy="518.5" r="2.12" fill="#FFFFFF" opacity="0.28"/>
      <circle cx="551.3" cy="383.5" r="2.45" fill="#FFFFFF" opacity="0.24"/>
      <circle cx="610.4" cy="544.1" r="3.99" fill="#FFFFFF" opacity="0.27"/>
      <circle cx="624.8" cy="558.7" r="2.11" fill="#FFFFFF" opacity="0.38"/>
      <circle cx="440.5" cy="380.0" r="2.73" fill="#FFFFFF" opacity="0.40"/>
      <circle cx="486.7" cy="627.4" r="2.53" fill="#FFFFFF" opacity="0.44"/>
      <circle cx="529.1" cy="514.4" r="2.86" fill="#FFFFFF" opacity="0.57"/>
      <circle cx="395.0" cy="454.0" r="4.19" fill="#FFFFFF" opacity="0.49"/>
      <circle cx="556.3" cy="249.6" r="2.64" fill="#FFFFFF" opacity="0.45"/>
      <circle cx="472.9" cy="537.4" r="2.35" fill="#FFFFFF" opacity="0.20"/>
      <circle cx="398.5" cy="307.6" r="3.60" fill="#FFFFFF" opacity="0.41"/>
      <circle cx="445.4" cy="519.7" r="3.89" fill="#FFFFFF" opacity="0.44"/>
      <circle cx="679.7" cy="446.3" r="3.18" fill="#FFFFFF" opacity="0.33"/>
      <circle cx="548.3" cy="392.0" r="2.62" fill="#FFFFFF" opacity="0.23"/>
      <circle cx="524.4" cy="623.9" r="3.24" fill="#FFFFFF" opacity="0.20"/>
      <circle cx="507.3" cy="551.5" r="3.23" fill="#FFFFFF" opacity="0.46"/>
      <circle cx="430.1" cy="590.3" r="1.72" fill="#FFFFFF" opacity="0.21"/>
      <circle cx="372.1" cy="284.9" r="3.77" fill="#FFFFFF" opacity="0.44"/>
        
        <rect x="0" y="0" width="1050" height="1400" fill="url(#sheen)"/>
      </g>

      <path d="M 760.6 313.6 C 757.8 147.3 735.9 133.4 727.6 105.7 L 699.9 105.7 C 708.2 133.4 724.6 147.3 727.4 313.6 Z" fill="#A88B6E"/><path d="M 760.6 313.6 C 757.8 147.3 735.9 133.4 727.6 105.7 L 699.9 105.7 C 708.2 133.4 724.6 147.3 727.4 313.6 Z" fill="url(#sheen-user)"/>
      <path d="M 289.4 313.6 C 292.2 147.3 314.1 133.4 322.4 105.7 L 350.1 105.7 C 341.8 133.4 325.4 147.3 322.6 313.6 Z" fill="#A88B6E"/><path d="M 289.4 313.6 C 292.2 147.3 314.1 133.4 322.4 105.7 L 350.1 105.7 C 341.8 133.4 325.4 147.3 322.6 313.6 Z" fill="url(#sheen-user)"/>
    </g>

    <rect x="0" y="0" width="1050" height="1400" fill="url(#key)"/>
  </g>
</svg>
