<svg xmlns="http://www.w3.org/2000/svg" width="525.0" height="700.0" viewBox="262.5 700.0 525.0 700.0" role="img">
  <defs>
    <linearGradient id="cloth" x1="0.82" y1="0" x2="0.15" y2="1">
      <stop offset="0%" stop-color="#8A7080" stop-opacity="1"/>
      <stop offset="46%" stop-color="#8A7080" stop-opacity="0.82"/>
      <stop offset="100%" stop-color="#8A7080" stop-opacity="0.52"/>
    </linearGradient>
    <linearGradient id="sheen" x1="0.9" y1="0.05" x2="0.35" y2="0.95">
      <stop offset="0%" stop-color="#FFFFFF" stop-opacity="0.34"/>
      <stop offset="30%" stop-color="#FFFFFF" stop-opacity="0.06"/>
      <stop offset="62%" stop-color="#FFFFFF" stop-opacity="0.16"/>
      <stop offset="100%" stop-color="#000000" stop-opacity="0.22"/>
    </linearGradient>
    <!-- The same satin, mapped to the CANVAS instead of to each shape's own
         box. The body wears this gradient stretched across the whole frame, so
         a strap wearing it stretched across its own few pixels gets the entire
         light-to-dark run compressed into itself, and comes out darker than the
         cloth it is sewn to — آذین's wide pair read as two epaulettes. Light
         falls on a garment from one direction, not from each piece's corner.
         NOTE: no backticks in here. This comment is inside a template literal. -->
    <linearGradient id="sheen-user" gradientUnits="userSpaceOnUse" x1="945.0" y1="70.0" x2="367.5" y2="1330.0">
      <stop offset="0%" stop-color="#FFFFFF" stop-opacity="0.34"/>
      <stop offset="30%" stop-color="#FFFFFF" stop-opacity="0.06"/>
      <stop offset="62%" stop-color="#FFFFFF" stop-opacity="0.16"/>
      <stop offset="100%" stop-color="#000000" stop-opacity="0.22"/>
    </linearGradient>
    <linearGradient id="fold" x1="0" y1="0" x2="0" y2="1">
      <stop offset="0%" stop-color="#FFFFFF" stop-opacity="0.26"/>
      <stop offset="70%" stop-color="#FFFFFF" stop-opacity="0.10"/>
      <stop offset="100%" stop-color="#FFFFFF" stop-opacity="0"/>
    </linearGradient>
    <radialGradient id="key" cx="80%" cy="10%" r="92%">
      <stop offset="0%" stop-color="#FFFFFF" stop-opacity="0.13"/>
      <stop offset="55%" stop-color="#FFFFFF" stop-opacity="0.03"/>
      <stop offset="100%" stop-color="#000000" stop-opacity="0.30"/>
    </radialGradient>
    <radialGradient id="floor" cx="50%" cy="50%" r="50%">
      <stop offset="0%" stop-color="#000000" stop-opacity="0.55"/>
      <stop offset="100%" stop-color="#000000" stop-opacity="0"/>
    </radialGradient>
    <clipPath id="body"><path d="M 746.8 175.0 Q 525.0 207.8 303.2 175.0 C 321.0 490.0 372.2 560.0 379.5 616.0 C 343.1 821.8 219.4 1115.8 185.4 1351.0 Q 525.0 1400.0 864.6 1351.0 C 830.6 1115.8 706.9 821.8 670.5 616.0 C 677.8 560.0 729.0 490.0 746.8 175.0 Z"/></clipPath>
    <filter id="soften" x="-10%" y="-10%" width="120%" height="120%">
      <feGaussianBlur stdDeviation="1.68"/>
    </filter>
    <filter id="grain" x="0" y="0" width="100%" height="100%">
      <feTurbulence type="fractalNoise" baseFrequency="0.9" numOctaves="3" seed="174" result="n"/>
      <feColorMatrix type="saturate" values="0" in="n" result="g"/>
      <feComponentTransfer in="g" result="gt">
        <feFuncA type="linear" slope="0.18"/>
      </feComponentTransfer>
      <feBlend in="SourceGraphic" in2="gt" mode="overlay"/>
    </filter>
  </defs>

  <g filter="url(#grain)">
    <rect x="0" y="0" width="1050" height="1400" fill="#231017"/>

    <!-- The cloth the gown is standing on. -->
    <ellipse cx="525.0" cy="1351.0" rx="582.1" ry="44.8" fill="url(#floor)"/>

    <g filter="url(#soften)">
      
      
      <path d="M 746.8 175.0 Q 525.0 207.8 303.2 175.0 C 321.0 490.0 372.2 560.0 379.5 616.0 C 343.1 821.8 219.4 1115.8 185.4 1351.0 Q 525.0 1400.0 864.6 1351.0 C 830.6 1115.8 706.9 821.8 670.5 616.0 C 677.8 560.0 729.0 490.0 746.8 175.0 Z" fill="url(#cloth)"/>

      <g clip-path="url(#body)">
        <path d="M 422.9 630.0 C 447.0 865.9 203.2 1065.4 227.3 1315.3" fill="none" stroke="url(#fold)" stroke-width="4.9" stroke-linecap="round"/>
      <path d="M 456.7 630.0 C 448.5 865.9 334.0 997.3 325.8 1247.2" fill="none" stroke="url(#fold)" stroke-width="4.5" stroke-linecap="round"/>
      <path d="M 486.2 630.0 C 499.1 865.9 399.0 1012.2 411.8 1262.1" fill="none" stroke="url(#fold)" stroke-width="9.8" stroke-linecap="round"/>
      <path d="M 526.0 630.0 C 538.4 865.9 515.6 1020.1 528.0 1270.0" fill="none" stroke="url(#fold)" stroke-width="8.1" stroke-linecap="round"/>
      <path d="M 556.6 630.0 C 548.1 865.9 625.7 973.3 617.1 1223.2" fill="none" stroke="url(#fold)" stroke-width="10.2" stroke-linecap="round"/>
      <path d="M 594.7 630.0 C 569.6 865.9 753.5 1022.9 728.3 1272.8" fill="none" stroke="url(#fold)" stroke-width="8.8" stroke-linecap="round"/>
      <path d="M 624.1 630.0 C 611.8 865.9 826.3 1057.2 814.0 1307.1" fill="none" stroke="url(#fold)" stroke-width="4.7" stroke-linecap="round"/>
        <circle cx="536.1" cy="624.9" r="3.28" fill="#FFFFFF" opacity="0.19"/>
      <circle cx="739.2" cy="1336.3" r="2.05" fill="#FFFFFF" opacity="0.25"/>
      <circle cx="409.8" cy="953.1" r="2.52" fill="#FFFFFF" opacity="0.20"/>
      <circle cx="676.5" cy="984.2" r="4.31" fill="#FFFFFF" opacity="0.44"/>
      <circle cx="374.9" cy="394.0" r="2.15" fill="#FFFFFF" opacity="0.39"/>
      <circle cx="405.9" cy="344.2" r="3.32" fill="#FFFFFF" opacity="0.49"/>
      <circle cx="506.8" cy="980.3" r="4.34" fill="#FFFFFF" opacity="0.24"/>
      <circle cx="575.5" cy="614.5" r="2.22" fill="#FFFFFF" opacity="0.48"/>
      <circle cx="337.5" cy="1053.5" r="1.88" fill="#FFFFFF" opacity="0.37"/>
      <circle cx="690.2" cy="1294.1" r="3.67" fill="#FFFFFF" opacity="0.46"/>
      <circle cx="687.8" cy="1131.7" r="2.17" fill="#FFFFFF" opacity="0.38"/>
      <circle cx="364.2" cy="920.9" r="3.32" fill="#FFFFFF" opacity="0.35"/>
      <circle cx="320.3" cy="1239.6" r="2.43" fill="#FFFFFF" opacity="0.58"/>
      <circle cx="449.0" cy="750.9" r="2.51" fill="#FFFFFF" opacity="0.52"/>
      <circle cx="473.6" cy="1178.9" r="3.07" fill="#FFFFFF" opacity="0.49"/>
      <circle cx="402.5" cy="1047.3" r="2.04" fill="#FFFFFF" opacity="0.40"/>
      <circle cx="373.0" cy="298.3" r="2.33" fill="#FFFFFF" opacity="0.48"/>
      <circle cx="436.1" cy="311.9" r="4.33" fill="#FFFFFF" opacity="0.50"/>
      <circle cx="622.3" cy="203.8" r="1.83" fill="#FFFFFF" opacity="0.46"/>
      <circle cx="547.1" cy="901.1" r="2.07" fill="#FFFFFF" opacity="0.43"/>
      <circle cx="618.8" cy="1227.1" r="4.27" fill="#FFFFFF" opacity="0.55"/>
      <circle cx="485.2" cy="364.9" r="2.51" fill="#FFFFFF" opacity="0.41"/>
      <circle cx="570.9" cy="688.6" r="2.96" fill="#FFFFFF" opacity="0.49"/>
      <circle cx="647.6" cy="650.8" r="2.86" fill="#FFFFFF" opacity="0.36"/>
      <circle cx="708.3" cy="988.6" r="4.39" fill="#FFFFFF" opacity="0.53"/>
      <circle cx="492.3" cy="733.8" r="4.01" fill="#FFFFFF" opacity="0.41"/>
      <circle cx="347.1" cy="1125.7" r="1.77" fill="#FFFFFF" opacity="0.26"/>
      <circle cx="389.0" cy="224.0" r="2.58" fill="#FFFFFF" opacity="0.23"/>
      <circle cx="452.4" cy="340.1" r="3.36" fill="#FFFFFF" opacity="0.18"/>
      <circle cx="479.0" cy="1324.3" r="2.29" fill="#FFFFFF" opacity="0.28"/>
      <circle cx="647.9" cy="1255.0" r="3.64" fill="#FFFFFF" opacity="0.40"/>
      <circle cx="611.7" cy="1101.1" r="3.67" fill="#FFFFFF" opacity="0.49"/>
      <circle cx="666.1" cy="1035.8" r="3.79" fill="#FFFFFF" opacity="0.42"/>
      <circle cx="480.3" cy="473.7" r="2.04" fill="#FFFFFF" opacity="0.20"/>
      <circle cx="414.8" cy="414.3" r="2.32" fill="#FFFFFF" opacity="0.47"/>
      <circle cx="687.2" cy="1220.7" r="2.16" fill="#FFFFFF" opacity="0.31"/>
      <circle cx="651.9" cy="732.1" r="2.25" fill="#FFFFFF" opacity="0.41"/>
      <circle cx="303.6" cy="1336.7" r="2.93" fill="#FFFFFF" opacity="0.23"/>
      <circle cx="422.5" cy="480.4" r="2.02" fill="#FFFFFF" opacity="0.45"/>
      <circle cx="467.2" cy="217.9" r="4.17" fill="#FFFFFF" opacity="0.32"/>
      <circle cx="470.1" cy="521.9" r="3.08" fill="#FFFFFF" opacity="0.33"/>
      <circle cx="731.8" cy="1050.9" r="2.58" fill="#FFFFFF" opacity="0.27"/>
      <circle cx="417.2" cy="775.1" r="3.85" fill="#FFFFFF" opacity="0.28"/>
      <circle cx="318.3" cy="1217.5" r="4.29" fill="#FFFFFF" opacity="0.56"/>
      <circle cx="459.0" cy="987.5" r="2.17" fill="#FFFFFF" opacity="0.45"/>
      <circle cx="645.6" cy="566.9" r="2.12" fill="#FFFFFF" opacity="0.35"/>
      <circle cx="511.6" cy="1007.1" r="3.30" fill="#FFFFFF" opacity="0.56"/>
      <circle cx="405.5" cy="1148.2" r="2.08" fill="#FFFFFF" opacity="0.37"/>
      <circle cx="532.4" cy="551.3" r="3.53" fill="#FFFFFF" opacity="0.32"/>
      <circle cx="397.0" cy="701.9" r="3.69" fill="#FFFFFF" opacity="0.20"/>
      <circle cx="544.9" cy="769.7" r="4.04" fill="#FFFFFF" opacity="0.53"/>
      <circle cx="561.1" cy="572.1" r="2.28" fill="#FFFFFF" opacity="0.30"/>
      <circle cx="579.6" cy="712.9" r="3.04" fill="#FFFFFF" opacity="0.21"/>
      <circle cx="506.2" cy="489.4" r="2.38" fill="#FFFFFF" opacity="0.32"/>
      <circle cx="485.8" cy="1334.3" r="1.74" fill="#FFFFFF" opacity="0.33"/>
      <circle cx="370.2" cy="886.5" r="4.02" fill="#FFFFFF" opacity="0.51"/>
      <circle cx="452.0" cy="954.9" r="2.33" fill="#FFFFFF" opacity="0.33"/>
      <circle cx="287.2" cy="1268.9" r="2.80" fill="#FFFFFF" opacity="0.35"/>
      <circle cx="617.1" cy="556.5" r="3.34" fill="#FFFFFF" opacity="0.57"/>
      <circle cx="544.9" cy="377.8" r="3.78" fill="#FFFFFF" opacity="0.20"/>
      <circle cx="611.5" cy="537.2" r="3.44" fill="#FFFFFF" opacity="0.28"/>
      <circle cx="577.0" cy="443.9" r="2.85" fill="#FFFFFF" opacity="0.57"/>
      <circle cx="611.4" cy="409.4" r="2.62" fill="#FFFFFF" opacity="0.24"/>
      <circle cx="592.4" cy="606.8" r="3.69" fill="#FFFFFF" opacity="0.42"/>
      <circle cx="690.2" cy="290.1" r="3.55" fill="#FFFFFF" opacity="0.20"/>
      <circle cx="462.1" cy="1311.4" r="2.13" fill="#FFFFFF" opacity="0.26"/>
      <circle cx="550.5" cy="742.0" r="2.25" fill="#FFFFFF" opacity="0.22"/>
      <circle cx="385.8" cy="1315.1" r="3.54" fill="#FFFFFF" opacity="0.33"/>
      <circle cx="380.5" cy="964.2" r="3.36" fill="#FFFFFF" opacity="0.31"/>
      <circle cx="637.4" cy="1079.8" r="2.05" fill="#FFFFFF" opacity="0.35"/>
      <circle cx="476.2" cy="1072.2" r="3.02" fill="#FFFFFF" opacity="0.44"/>
      <circle cx="610.7" cy="1070.3" r="3.70" fill="#FFFFFF" opacity="0.36"/>
      <circle cx="523.6" cy="432.4" r="1.76" fill="#FFFFFF" opacity="0.43"/>
      <circle cx="458.7" cy="698.4" r="3.30" fill="#FFFFFF" opacity="0.25"/>
      <circle cx="467.2" cy="1233.3" r="4.03" fill="#FFFFFF" opacity="0.58"/>
      <circle cx="489.9" cy="208.2" r="2.50" fill="#FFFFFF" opacity="0.52"/>
      <circle cx="555.3" cy="1223.6" r="4.21" fill="#FFFFFF" opacity="0.26"/>
      <circle cx="536.2" cy="911.6" r="3.30" fill="#FFFFFF" opacity="0.47"/>
      <circle cx="405.0" cy="871.1" r="2.83" fill="#FFFFFF" opacity="0.38"/>
      <circle cx="510.6" cy="330.0" r="1.92" fill="#FFFFFF" opacity="0.35"/>
      <circle cx="469.2" cy="836.1" r="3.83" fill="#FFFFFF" opacity="0.19"/>
      <circle cx="573.3" cy="608.3" r="1.80" fill="#FFFFFF" opacity="0.23"/>
      <circle cx="762.8" cy="1238.0" r="3.81" fill="#FFFFFF" opacity="0.43"/>
      <circle cx="396.8" cy="356.5" r="2.29" fill="#FFFFFF" opacity="0.40"/>
      <circle cx="575.5" cy="419.9" r="3.34" fill="#FFFFFF" opacity="0.36"/>
      <circle cx="597.9" cy="911.7" r="3.83" fill="#FFFFFF" opacity="0.52"/>
      <circle cx="317.5" cy="1246.8" r="1.97" fill="#FFFFFF" opacity="0.39"/>
      <circle cx="410.3" cy="617.9" r="2.43" fill="#FFFFFF" opacity="0.21"/>
      <circle cx="554.1" cy="829.8" r="4.40" fill="#FFFFFF" opacity="0.58"/>
      <circle cx="560.4" cy="1233.0" r="3.42" fill="#FFFFFF" opacity="0.48"/>
      <circle cx="412.7" cy="412.1" r="2.22" fill="#FFFFFF" opacity="0.23"/>
      <circle cx="624.1" cy="1203.2" r="2.57" fill="#FFFFFF" opacity="0.18"/>
      <circle cx="556.3" cy="975.9" r="2.24" fill="#FFFFFF" opacity="0.30"/>
      <circle cx="648.5" cy="1065.4" r="2.95" fill="#FFFFFF" opacity="0.48"/>
      <circle cx="470.6" cy="644.4" r="3.14" fill="#FFFFFF" opacity="0.47"/>
      <circle cx="586.9" cy="309.9" r="1.81" fill="#FFFFFF" opacity="0.34"/>
      <circle cx="653.0" cy="764.6" r="2.26" fill="#FFFFFF" opacity="0.52"/>
      <circle cx="538.4" cy="629.6" r="2.36" fill="#FFFFFF" opacity="0.47"/>
      <circle cx="633.2" cy="1155.8" r="2.64" fill="#FFFFFF" opacity="0.53"/>
      <circle cx="629.4" cy="630.4" r="3.72" fill="#FFFFFF" opacity="0.25"/>
      <circle cx="645.4" cy="596.8" r="3.80" fill="#FFFFFF" opacity="0.49"/>
      <circle cx="412.9" cy="371.8" r="2.07" fill="#FFFFFF" opacity="0.30"/>
      <circle cx="657.8" cy="253.7" r="3.60" fill="#FFFFFF" opacity="0.29"/>
      <circle cx="387.0" cy="813.0" r="2.86" fill="#FFFFFF" opacity="0.52"/>
      <circle cx="551.9" cy="865.8" r="3.05" fill="#FFFFFF" opacity="0.46"/>
      <circle cx="431.1" cy="461.0" r="3.14" fill="#FFFFFF" opacity="0.44"/>
      <circle cx="581.3" cy="578.2" r="3.07" fill="#FFFFFF" opacity="0.36"/>
      <circle cx="609.4" cy="700.1" r="4.10" fill="#FFFFFF" opacity="0.36"/>
      <circle cx="421.4" cy="306.5" r="4.13" fill="#FFFFFF" opacity="0.39"/>
      <circle cx="676.5" cy="287.4" r="1.97" fill="#FFFFFF" opacity="0.32"/>
      <circle cx="429.8" cy="564.6" r="3.40" fill="#FFFFFF" opacity="0.44"/>
      <circle cx="404.1" cy="825.8" r="3.62" fill="#FFFFFF" opacity="0.29"/>
      <circle cx="460.4" cy="1233.5" r="2.90" fill="#FFFFFF" opacity="0.30"/>
      <circle cx="616.7" cy="255.4" r="4.15" fill="#FFFFFF" opacity="0.23"/>
      <circle cx="406.0" cy="828.4" r="4.24" fill="#FFFFFF" opacity="0.43"/>
      <circle cx="587.9" cy="765.6" r="2.80" fill="#FFFFFF" opacity="0.47"/>
      <circle cx="332.1" cy="1002.9" r="3.49" fill="#FFFFFF" opacity="0.57"/>
      <circle cx="373.8" cy="1282.0" r="2.77" fill="#FFFFFF" opacity="0.47"/>
      <circle cx="464.4" cy="219.6" r="2.65" fill="#FFFFFF" opacity="0.36"/>
      <circle cx="390.7" cy="930.2" r="2.87" fill="#FFFFFF" opacity="0.21"/>
      <circle cx="580.5" cy="693.9" r="2.10" fill="#FFFFFF" opacity="0.25"/>
      <circle cx="526.6" cy="850.2" r="3.16" fill="#FFFFFF" opacity="0.45"/>
      <circle cx="343.3" cy="1060.1" r="4.23" fill="#FFFFFF" opacity="0.32"/>
      <circle cx="458.4" cy="915.5" r="2.38" fill="#FFFFFF" opacity="0.32"/>
      <circle cx="733.7" cy="1162.7" r="3.54" fill="#FFFFFF" opacity="0.24"/>
      <circle cx="596.4" cy="542.9" r="3.95" fill="#FFFFFF" opacity="0.23"/>
      <circle cx="619.6" cy="605.7" r="4.19" fill="#FFFFFF" opacity="0.37"/>
      <circle cx="634.7" cy="1295.8" r="2.84" fill="#FFFFFF" opacity="0.20"/>
      <circle cx="541.6" cy="244.0" r="2.31" fill="#FFFFFF" opacity="0.37"/>
      <circle cx="484.7" cy="948.6" r="2.74" fill="#FFFFFF" opacity="0.47"/>
      <circle cx="603.0" cy="875.6" r="3.88" fill="#FFFFFF" opacity="0.50"/>
      <circle cx="578.7" cy="826.0" r="3.38" fill="#FFFFFF" opacity="0.20"/>
      <circle cx="675.5" cy="284.9" r="1.88" fill="#FFFFFF" opacity="0.53"/>
      <circle cx="427.4" cy="1159.0" r="4.38" fill="#FFFFFF" opacity="0.31"/>
      <circle cx="409.6" cy="1262.3" r="2.76" fill="#FFFFFF" opacity="0.50"/>
      <circle cx="593.7" cy="531.2" r="3.74" fill="#FFFFFF" opacity="0.35"/>
      <circle cx="511.8" cy="754.8" r="3.90" fill="#FFFFFF" opacity="0.22"/>
      <circle cx="464.5" cy="563.0" r="2.10" fill="#FFFFFF" opacity="0.49"/>
      <circle cx="470.0" cy="325.4" r="4.06" fill="#FFFFFF" opacity="0.33"/>
      <circle cx="374.0" cy="908.6" r="4.34" fill="#FFFFFF" opacity="0.22"/>
      <circle cx="589.6" cy="1186.9" r="2.98" fill="#FFFFFF" opacity="0.44"/>
      <circle cx="467.0" cy="640.3" r="2.25" fill="#FFFFFF" opacity="0.55"/>
      <circle cx="332.4" cy="1029.2" r="4.01" fill="#FFFFFF" opacity="0.43"/>
      <circle cx="547.6" cy="276.9" r="3.80" fill="#FFFFFF" opacity="0.54"/>
      <circle cx="541.2" cy="676.1" r="3.17" fill="#FFFFFF" opacity="0.44"/>
      <circle cx="634.0" cy="1015.3" r="2.56" fill="#FFFFFF" opacity="0.25"/>
      <circle cx="415.6" cy="1056.5" r="2.96" fill="#FFFFFF" opacity="0.44"/>
      <circle cx="414.1" cy="1162.4" r="1.79" fill="#FFFFFF" opacity="0.25"/>
      <circle cx="419.0" cy="820.7" r="1.81" fill="#FFFFFF" opacity="0.44"/>
      <circle cx="275.4" cy="1250.5" r="3.32" fill="#FFFFFF" opacity="0.40"/>
      <circle cx="622.3" cy="342.6" r="2.77" fill="#FFFFFF" opacity="0.33"/>
      <circle cx="576.5" cy="612.6" r="1.97" fill="#FFFFFF" opacity="0.45"/>
      <circle cx="542.8" cy="628.0" r="3.30" fill="#FFFFFF" opacity="0.35"/>
      <circle cx="488.7" cy="344.8" r="2.04" fill="#FFFFFF" opacity="0.29"/>
      <circle cx="620.7" cy="572.4" r="4.29" fill="#FFFFFF" opacity="0.33"/>
      <circle cx="384.7" cy="1173.9" r="3.92" fill="#FFFFFF" opacity="0.34"/>
      <circle cx="481.9" cy="604.5" r="2.92" fill="#FFFFFF" opacity="0.49"/>
      <circle cx="585.1" cy="822.8" r="1.80" fill="#FFFFFF" opacity="0.48"/>
      <circle cx="411.2" cy="1235.1" r="2.06" fill="#FFFFFF" opacity="0.46"/>
      <circle cx="339.8" cy="1205.5" r="3.37" fill="#FFFFFF" opacity="0.33"/>
      <circle cx="650.6" cy="1105.0" r="3.40" fill="#FFFFFF" opacity="0.34"/>
      <circle cx="492.7" cy="1344.5" r="3.28" fill="#FFFFFF" opacity="0.32"/>
      <circle cx="604.1" cy="269.1" r="3.58" fill="#FFFFFF" opacity="0.42"/>
      <circle cx="391.1" cy="1264.9" r="3.24" fill="#FFFFFF" opacity="0.34"/>
      <circle cx="497.6" cy="683.0" r="4.10" fill="#FFFFFF" opacity="0.43"/>
      <circle cx="446.7" cy="795.5" r="2.16" fill="#FFFFFF" opacity="0.22"/>
      <circle cx="449.8" cy="448.0" r="2.22" fill="#FFFFFF" opacity="0.35"/>
      <circle cx="278.6" cy="1310.1" r="2.94" fill="#FFFFFF" opacity="0.18"/>
      <circle cx="275.8" cy="1328.1" r="4.00" fill="#FFFFFF" opacity="0.30"/>
      <circle cx="308.6" cy="1228.4" r="2.95" fill="#FFFFFF" opacity="0.44"/>
      <circle cx="480.9" cy="842.7" r="1.90" fill="#FFFFFF" opacity="0.36"/>
      <circle cx="265.2" cy="1344.8" r="3.93" fill="#FFFFFF" opacity="0.25"/>
      <circle cx="441.0" cy="1075.6" r="1.80" fill="#FFFFFF" opacity="0.39"/>
      <circle cx="532.6" cy="472.6" r="2.79" fill="#FFFFFF" opacity="0.18"/>
      <circle cx="546.9" cy="910.7" r="3.66" fill="#FFFFFF" opacity="0.43"/>
      <circle cx="356.8" cy="916.6" r="1.79" fill="#FFFFFF" opacity="0.24"/>
      <circle cx="621.1" cy="392.7" r="4.31" fill="#FFFFFF" opacity="0.39"/>
      <circle cx="441.3" cy="816.2" r="2.52" fill="#FFFFFF" opacity="0.33"/>
      <circle cx="500.6" cy="1142.2" r="3.06" fill="#FFFFFF" opacity="0.33"/>
      <circle cx="548.2" cy="910.4" r="2.70" fill="#FFFFFF" opacity="0.28"/>
      <circle cx="534.5" cy="527.9" r="2.06" fill="#FFFFFF" opacity="0.36"/>
      <circle cx="422.9" cy="467.6" r="4.15" fill="#FFFFFF" opacity="0.55"/>
      <circle cx="412.0" cy="261.3" r="4.06" fill="#FFFFFF" opacity="0.39"/>
      <circle cx="385.6" cy="750.4" r="1.78" fill="#FFFFFF" opacity="0.47"/>
      <circle cx="415.4" cy="712.7" r="2.21" fill="#FFFFFF" opacity="0.25"/>
      <circle cx="638.4" cy="1089.1" r="2.81" fill="#FFFFFF" opacity="0.45"/>
      <circle cx="580.4" cy="464.7" r="2.74" fill="#FFFFFF" opacity="0.56"/>
      <circle cx="334.6" cy="1341.7" r="2.42" fill="#FFFFFF" opacity="0.41"/>
      <circle cx="364.2" cy="1103.8" r="4.16" fill="#FFFFFF" opacity="0.24"/>
      <circle cx="541.1" cy="407.1" r="3.34" fill="#FFFFFF" opacity="0.27"/>
      <circle cx="331.9" cy="1178.3" r="3.91" fill="#FFFFFF" opacity="0.40"/>
      <circle cx="402.8" cy="1124.4" r="2.75" fill="#FFFFFF" opacity="0.27"/>
      <circle cx="539.3" cy="1132.4" r="2.46" fill="#FFFFFF" opacity="0.22"/>
      <circle cx="430.0" cy="893.5" r="4.02" fill="#FFFFFF" opacity="0.44"/>
      <circle cx="667.4" cy="851.8" r="2.12" fill="#FFFFFF" opacity="0.57"/>
      <circle cx="499.9" cy="1310.6" r="4.00" fill="#FFFFFF" opacity="0.39"/>
      <circle cx="667.8" cy="1298.0" r="3.33" fill="#FFFFFF" opacity="0.58"/>
      <circle cx="301.6" cy="1227.6" r="2.28" fill="#FFFFFF" opacity="0.27"/>
      <circle cx="497.1" cy="1048.3" r="3.72" fill="#FFFFFF" opacity="0.34"/>
      <circle cx="434.7" cy="791.0" r="2.52" fill="#FFFFFF" opacity="0.37"/>
      <circle cx="448.9" cy="370.4" r="3.02" fill="#FFFFFF" opacity="0.48"/>
      <circle cx="412.4" cy="385.5" r="2.98" fill="#FFFFFF" opacity="0.32"/>
      <circle cx="248.0" cy="1349.8" r="2.42" fill="#FFFFFF" opacity="0.36"/>
      <circle cx="499.9" cy="224.0" r="3.57" fill="#FFFFFF" opacity="0.18"/>
      <circle cx="556.1" cy="627.4" r="4.36" fill="#FFFFFF" opacity="0.23"/>
      <circle cx="591.4" cy="582.6" r="2.25" fill="#FFFFFF" opacity="0.27"/>
      <circle cx="455.8" cy="1150.9" r="4.06" fill="#FFFFFF" opacity="0.54"/>
      <circle cx="634.6" cy="386.0" r="2.40" fill="#FFFFFF" opacity="0.51"/>
      <circle cx="395.2" cy="464.1" r="3.26" fill="#FFFFFF" opacity="0.34"/>
      <circle cx="623.9" cy="1030.5" r="4.05" fill="#FFFFFF" opacity="0.50"/>
      <circle cx="661.9" cy="305.0" r="2.18" fill="#FFFFFF" opacity="0.41"/>
      <circle cx="494.5" cy="520.5" r="3.48" fill="#FFFFFF" opacity="0.30"/>
      <circle cx="530.9" cy="779.3" r="2.57" fill="#FFFFFF" opacity="0.33"/>
      <circle cx="571.1" cy="879.3" r="3.90" fill="#FFFFFF" opacity="0.37"/>
      <circle cx="379.9" cy="917.7" r="2.79" fill="#FFFFFF" opacity="0.23"/>
      <circle cx="460.1" cy="1280.6" r="4.39" fill="#FFFFFF" opacity="0.21"/>
      <circle cx="410.9" cy="1028.8" r="3.98" fill="#FFFFFF" opacity="0.57"/>
      <circle cx="381.7" cy="1011.2" r="2.77" fill="#FFFFFF" opacity="0.56"/>
      <circle cx="609.1" cy="1104.5" r="2.70" fill="#FFFFFF" opacity="0.50"/>
      <circle cx="665.4" cy="782.1" r="4.06" fill="#FFFFFF" opacity="0.24"/>
      <circle cx="655.2" cy="1019.5" r="2.85" fill="#FFFFFF" opacity="0.27"/>
      <circle cx="485.5" cy="1242.2" r="1.76" fill="#FFFFFF" opacity="0.23"/>
      <circle cx="356.9" cy="228.9" r="3.30" fill="#FFFFFF" opacity="0.31"/>
      <circle cx="453.1" cy="989.6" r="3.04" fill="#FFFFFF" opacity="0.37"/>
      <circle cx="590.7" cy="406.8" r="1.91" fill="#FFFFFF" opacity="0.20"/>
      <circle cx="452.3" cy="968.0" r="2.25" fill="#FFFFFF" opacity="0.47"/>
      <circle cx="511.0" cy="695.7" r="2.59" fill="#FFFFFF" opacity="0.45"/>
      <circle cx="389.6" cy="326.1" r="3.63" fill="#FFFFFF" opacity="0.51"/>
      <circle cx="515.9" cy="488.5" r="3.33" fill="#FFFFFF" opacity="0.56"/>
      <circle cx="619.3" cy="957.5" r="3.38" fill="#FFFFFF" opacity="0.31"/>
      <circle cx="531.1" cy="561.1" r="3.53" fill="#FFFFFF" opacity="0.56"/>
      <circle cx="553.8" cy="1207.0" r="1.84" fill="#FFFFFF" opacity="0.45"/>
      <circle cx="354.2" cy="258.5" r="3.37" fill="#FFFFFF" opacity="0.57"/>
      <circle cx="652.2" cy="554.6" r="2.20" fill="#FFFFFF" opacity="0.58"/>
      <circle cx="479.2" cy="1066.4" r="3.26" fill="#FFFFFF" opacity="0.21"/>
      <circle cx="388.6" cy="353.4" r="3.97" fill="#FFFFFF" opacity="0.56"/>
      <circle cx="389.3" cy="496.8" r="3.52" fill="#FFFFFF" opacity="0.36"/>
      <circle cx="410.8" cy="620.4" r="2.02" fill="#FFFFFF" opacity="0.26"/>
      <circle cx="397.4" cy="395.4" r="4.22" fill="#FFFFFF" opacity="0.46"/>
      <circle cx="447.3" cy="918.3" r="2.22" fill="#FFFFFF" opacity="0.52"/>
      <circle cx="393.9" cy="970.8" r="2.45" fill="#FFFFFF" opacity="0.50"/>
      <circle cx="607.7" cy="734.2" r="1.70" fill="#FFFFFF" opacity="0.41"/>
      <circle cx="673.8" cy="1208.8" r="3.40" fill="#FFFFFF" opacity="0.57"/>
      <circle cx="531.6" cy="504.2" r="2.13" fill="#FFFFFF" opacity="0.44"/>
      <circle cx="542.2" cy="1081.5" r="4.37" fill="#FFFFFF" opacity="0.32"/>
      <circle cx="535.1" cy="987.9" r="3.96" fill="#FFFFFF" opacity="0.49"/>
      <circle cx="435.3" cy="957.3" r="3.42" fill="#FFFFFF" opacity="0.34"/>
      <circle cx="341.5" cy="992.6" r="3.66" fill="#FFFFFF" opacity="0.42"/>
      <circle cx="616.9" cy="509.0" r="2.84" fill="#FFFFFF" opacity="0.27"/>
      <circle cx="398.7" cy="335.3" r="1.94" fill="#FFFFFF" opacity="0.28"/>
      <circle cx="403.0" cy="563.8" r="1.77" fill="#FFFFFF" opacity="0.43"/>
      <circle cx="471.2" cy="1154.2" r="4.07" fill="#FFFFFF" opacity="0.40"/>
      <circle cx="628.1" cy="1006.3" r="2.75" fill="#FFFFFF" opacity="0.19"/>
      <circle cx="479.6" cy="682.3" r="3.91" fill="#FFFFFF" opacity="0.20"/>
      <circle cx="587.9" cy="476.7" r="1.94" fill="#FFFFFF" opacity="0.25"/>
      <circle cx="575.9" cy="738.3" r="3.60" fill="#FFFFFF" opacity="0.56"/>
      <circle cx="392.4" cy="1305.0" r="4.16" fill="#FFFFFF" opacity="0.47"/>
      <circle cx="454.2" cy="644.1" r="3.44" fill="#FFFFFF" opacity="0.47"/>
      <circle cx="517.9" cy="1316.3" r="2.62" fill="#FFFFFF" opacity="0.35"/>
      <circle cx="719.8" cy="1118.7" r="2.83" fill="#FFFFFF" opacity="0.42"/>
      <circle cx="728.1" cy="1205.2" r="2.42" fill="#FFFFFF" opacity="0.37"/>
      <circle cx="479.8" cy="783.4" r="4.12" fill="#FFFFFF" opacity="0.58"/>
      <circle cx="381.4" cy="1076.0" r="3.36" fill="#FFFFFF" opacity="0.29"/>
      <circle cx="451.8" cy="1347.3" r="2.94" fill="#FFFFFF" opacity="0.36"/>
      <circle cx="398.6" cy="1073.0" r="2.00" fill="#FFFFFF" opacity="0.34"/>
      <circle cx="424.2" cy="811.9" r="3.36" fill="#FFFFFF" opacity="0.46"/>
      <circle cx="591.5" cy="360.2" r="2.04" fill="#FFFFFF" opacity="0.20"/>
      <circle cx="634.4" cy="1096.1" r="3.09" fill="#FFFFFF" opacity="0.32"/>
      <circle cx="721.9" cy="1338.6" r="3.06" fill="#FFFFFF" opacity="0.36"/>
      <circle cx="469.1" cy="236.3" r="3.49" fill="#FFFFFF" opacity="0.38"/>
      <circle cx="499.4" cy="734.0" r="3.14" fill="#FFFFFF" opacity="0.26"/>
      <circle cx="598.0" cy="1302.8" r="3.33" fill="#FFFFFF" opacity="0.19"/>
      <circle cx="387.5" cy="845.7" r="4.27" fill="#FFFFFF" opacity="0.23"/>
      <circle cx="754.0" cy="1299.7" r="3.70" fill="#FFFFFF" opacity="0.50"/>
      <circle cx="456.8" cy="777.3" r="4.37" fill="#FFFFFF" opacity="0.29"/>
      <circle cx="620.2" cy="224.5" r="2.07" fill="#FFFFFF" opacity="0.46"/>
      <circle cx="339.2" cy="941.4" r="3.06" fill="#FFFFFF" opacity="0.34"/>
      <circle cx="630.4" cy="443.6" r="3.00" fill="#FFFFFF" opacity="0.36"/>
      <circle cx="426.9" cy="1321.9" r="2.21" fill="#FFFFFF" opacity="0.42"/>
      <circle cx="453.9" cy="971.6" r="4.39" fill="#FFFFFF" opacity="0.22"/>
      <circle cx="636.7" cy="382.1" r="3.91" fill="#FFFFFF" opacity="0.36"/>
      <circle cx="428.9" cy="433.8" r="3.06" fill="#FFFFFF" opacity="0.43"/>
      <circle cx="638.8" cy="358.1" r="3.07" fill="#FFFFFF" opacity="0.25"/>
      <circle cx="458.2" cy="673.4" r="3.16" fill="#FFFFFF" opacity="0.20"/>
      <circle cx="492.3" cy="570.9" r="2.19" fill="#FFFFFF" opacity="0.38"/>
      <circle cx="476.3" cy="673.5" r="2.99" fill="#FFFFFF" opacity="0.43"/>
      <circle cx="614.3" cy="567.5" r="4.30" fill="#FFFFFF" opacity="0.34"/>
      <circle cx="553.3" cy="307.9" r="3.74" fill="#FFFFFF" opacity="0.39"/>
      <circle cx="397.2" cy="463.8" r="3.43" fill="#FFFFFF" opacity="0.42"/>
      <circle cx="516.9" cy="1294.0" r="2.15" fill="#FFFFFF" opacity="0.46"/>
      <circle cx="430.3" cy="785.5" r="2.56" fill="#FFFFFF" opacity="0.56"/>
      <circle cx="605.0" cy="755.6" r="2.32" fill="#FFFFFF" opacity="0.28"/>
      <circle cx="528.5" cy="658.9" r="4.37" fill="#FFFFFF" opacity="0.40"/>
      <circle cx="660.9" cy="355.5" r="3.16" fill="#FFFFFF" opacity="0.51"/>
      <circle cx="293.1" cy="1238.8" r="2.23" fill="#FFFFFF" opacity="0.44"/>
      <circle cx="727.8" cy="1149.3" r="2.46" fill="#FFFFFF" opacity="0.44"/>
      <circle cx="593.2" cy="598.7" r="4.06" fill="#FFFFFF" opacity="0.40"/>
      <circle cx="438.4" cy="233.5" r="3.77" fill="#FFFFFF" opacity="0.39"/>
      <circle cx="410.8" cy="746.9" r="1.85" fill="#FFFFFF" opacity="0.22"/>
      <circle cx="457.1" cy="667.5" r="4.38" fill="#FFFFFF" opacity="0.41"/>
        
        <rect x="0" y="0" width="1050" height="1400" fill="url(#sheen)"/>
      </g>

      <path d="M 746.8 313.6 C 739.6 147.3 737.3 133.4 715.7 105.7 L 643.6 105.7 C 665.3 133.4 653.1 147.3 660.3 313.6 Z" fill="#8A7080"/><path d="M 746.8 313.6 C 739.6 147.3 737.3 133.4 715.7 105.7 L 643.6 105.7 C 665.3 133.4 653.1 147.3 660.3 313.6 Z" fill="url(#sheen-user)"/>
      <path d="M 303.2 313.6 C 310.4 147.3 312.7 133.4 334.3 105.7 L 406.4 105.7 C 384.7 133.4 396.9 147.3 389.7 313.6 Z" fill="#8A7080"/><path d="M 303.2 313.6 C 310.4 147.3 312.7 133.4 334.3 105.7 L 406.4 105.7 C 384.7 133.4 396.9 147.3 389.7 313.6 Z" fill="url(#sheen-user)"/>
    </g>

    <rect x="0" y="0" width="1050" height="1400" fill="url(#key)"/>
  </g>
</svg>
