<svg xmlns="http://www.w3.org/2000/svg" width="525.0" height="700.0" viewBox="262.5 700.0 525.0 700.0" role="img">
  <defs>
    <linearGradient id="cloth" x1="0.82" y1="0" x2="0.15" y2="1">
      <stop offset="0%" stop-color="#6E6572" stop-opacity="1"/>
      <stop offset="46%" stop-color="#6E6572" stop-opacity="0.82"/>
      <stop offset="100%" stop-color="#6E6572" stop-opacity="0.52"/>
    </linearGradient>
    <linearGradient id="sheen" x1="0.9" y1="0.05" x2="0.35" y2="0.95">
      <stop offset="0%" stop-color="#FFFFFF" stop-opacity="0.34"/>
      <stop offset="30%" stop-color="#FFFFFF" stop-opacity="0.06"/>
      <stop offset="62%" stop-color="#FFFFFF" stop-opacity="0.16"/>
      <stop offset="100%" stop-color="#000000" stop-opacity="0.22"/>
    </linearGradient>
    <!-- The same satin, mapped to the CANVAS instead of to each shape's own
         box. The body wears this gradient stretched across the whole frame, so
         a strap wearing it stretched across its own few pixels gets the entire
         light-to-dark run compressed into itself, and comes out darker than the
         cloth it is sewn to — آذین's wide pair read as two epaulettes. Light
         falls on a garment from one direction, not from each piece's corner.
         NOTE: no backticks in here. This comment is inside a template literal. -->
    <linearGradient id="sheen-user" gradientUnits="userSpaceOnUse" x1="945.0" y1="70.0" x2="367.5" y2="1330.0">
      <stop offset="0%" stop-color="#FFFFFF" stop-opacity="0.34"/>
      <stop offset="30%" stop-color="#FFFFFF" stop-opacity="0.06"/>
      <stop offset="62%" stop-color="#FFFFFF" stop-opacity="0.16"/>
      <stop offset="100%" stop-color="#000000" stop-opacity="0.22"/>
    </linearGradient>
    <linearGradient id="fold" x1="0" y1="0" x2="0" y2="1">
      <stop offset="0%" stop-color="#FFFFFF" stop-opacity="0.26"/>
      <stop offset="70%" stop-color="#FFFFFF" stop-opacity="0.10"/>
      <stop offset="100%" stop-color="#FFFFFF" stop-opacity="0"/>
    </linearGradient>
    <radialGradient id="key" cx="80%" cy="10%" r="92%">
      <stop offset="0%" stop-color="#FFFFFF" stop-opacity="0.13"/>
      <stop offset="55%" stop-color="#FFFFFF" stop-opacity="0.03"/>
      <stop offset="100%" stop-color="#000000" stop-opacity="0.30"/>
    </radialGradient>
    <radialGradient id="floor" cx="50%" cy="50%" r="50%">
      <stop offset="0%" stop-color="#000000" stop-opacity="0.55"/>
      <stop offset="100%" stop-color="#000000" stop-opacity="0"/>
    </radialGradient>
    <clipPath id="body"><path d="M 698.3 175.0 Q 525.0 70.0 351.8 175.0 C 365.6 420.0 386.7 490.0 393.3 546.0 C 360.4 771.4 344.1 1093.4 324.0 1351.0 Q 525.0 1400.0 726.0 1351.0 C 705.9 1093.4 689.6 771.4 656.7 546.0 C 663.3 490.0 684.4 420.0 698.3 175.0 Z"/></clipPath>
    <filter id="soften" x="-10%" y="-10%" width="120%" height="120%">
      <feGaussianBlur stdDeviation="1.68"/>
    </filter>
    <filter id="grain" x="0" y="0" width="100%" height="100%">
      <feTurbulence type="fractalNoise" baseFrequency="0.9" numOctaves="3" seed="164" result="n"/>
      <feColorMatrix type="saturate" values="0" in="n" result="g"/>
      <feComponentTransfer in="g" result="gt">
        <feFuncA type="linear" slope="0.18"/>
      </feComponentTransfer>
      <feBlend in="SourceGraphic" in2="gt" mode="overlay"/>
    </filter>
  </defs>

  <g filter="url(#grain)">
    <rect x="0" y="0" width="1050" height="1400" fill="#231017"/>

    <!-- The cloth the gown is standing on. -->
    <ellipse cx="525.0" cy="1351.0" rx="582.1" ry="44.8" fill="url(#floor)"/>

    <g filter="url(#soften)">
      
      
      <path d="M 698.3 175.0 Q 525.0 70.0 351.8 175.0 C 365.6 420.0 386.7 490.0 393.3 546.0 C 360.4 771.4 344.1 1093.4 324.0 1351.0 Q 525.0 1400.0 726.0 1351.0 C 705.9 1093.4 689.6 771.4 656.7 546.0 C 663.3 490.0 684.4 420.0 698.3 175.0 Z" fill="url(#cloth)"/>

      <g clip-path="url(#body)">
        <path d="M 432.6 560.0 C 412.2 819.7 369.1 1027.7 348.7 1301.4" fill="none" stroke="url(#fold)" stroke-width="8.9" stroke-linecap="round"/>
      <path d="M 466.8 560.0 C 442.3 819.7 438.3 1017.3 413.9 1291.0" fill="none" stroke="url(#fold)" stroke-width="9.8" stroke-linecap="round"/>
      <path d="M 499.5 560.0 C 484.2 819.7 491.7 1044.7 476.4 1318.4" fill="none" stroke="url(#fold)" stroke-width="4.5" stroke-linecap="round"/>
      <path d="M 528.4 560.0 C 525.9 819.7 533.9 934.3 531.4 1208.0" fill="none" stroke="url(#fold)" stroke-width="10.2" stroke-linecap="round"/>
      <path d="M 558.5 560.0 C 550.7 819.7 596.7 954.4 589.0 1228.1" fill="none" stroke="url(#fold)" stroke-width="4.7" stroke-linecap="round"/>
      <path d="M 589.0 560.0 C 579.5 819.7 656.7 949.8 647.1 1223.5" fill="none" stroke="url(#fold)" stroke-width="4.2" stroke-linecap="round"/>
      <path d="M 612.8 560.0 C 600.9 819.7 704.5 963.7 692.6 1237.4" fill="none" stroke="url(#fold)" stroke-width="6.8" stroke-linecap="round"/>
        <circle cx="491.2" cy="295.3" r="3.62" fill="#FFFFFF" opacity="0.36"/>
      <circle cx="609.6" cy="324.4" r="2.12" fill="#FFFFFF" opacity="0.56"/>
      <circle cx="658.7" cy="233.1" r="2.56" fill="#FFFFFF" opacity="0.42"/>
      <circle cx="650.9" cy="324.9" r="2.68" fill="#FFFFFF" opacity="0.22"/>
      <circle cx="392.3" cy="246.6" r="2.23" fill="#FFFFFF" opacity="0.22"/>
      <circle cx="549.2" cy="252.5" r="3.53" fill="#FFFFFF" opacity="0.25"/>
      <circle cx="562.5" cy="262.2" r="1.81" fill="#FFFFFF" opacity="0.20"/>
      <circle cx="422.6" cy="445.4" r="2.07" fill="#FFFFFF" opacity="0.30"/>
      <circle cx="518.4" cy="295.9" r="1.89" fill="#FFFFFF" opacity="0.55"/>
      <circle cx="460.7" cy="444.6" r="2.94" fill="#FFFFFF" opacity="0.34"/>
      <circle cx="425.8" cy="228.5" r="2.86" fill="#FFFFFF" opacity="0.32"/>
      <circle cx="500.9" cy="238.0" r="4.27" fill="#FFFFFF" opacity="0.48"/>
      <circle cx="537.1" cy="288.9" r="2.21" fill="#FFFFFF" opacity="0.46"/>
      <circle cx="514.7" cy="496.7" r="1.81" fill="#FFFFFF" opacity="0.41"/>
      <circle cx="630.5" cy="529.7" r="4.15" fill="#FFFFFF" opacity="0.35"/>
      <circle cx="513.7" cy="432.3" r="2.76" fill="#FFFFFF" opacity="0.23"/>
      <circle cx="418.7" cy="323.7" r="3.58" fill="#FFFFFF" opacity="0.30"/>
      <circle cx="494.1" cy="476.8" r="3.05" fill="#FFFFFF" opacity="0.21"/>
      <circle cx="550.5" cy="283.3" r="4.27" fill="#FFFFFF" opacity="0.33"/>
      <circle cx="504.3" cy="525.6" r="4.17" fill="#FFFFFF" opacity="0.25"/>
      <circle cx="608.1" cy="428.7" r="3.17" fill="#FFFFFF" opacity="0.55"/>
      <circle cx="459.1" cy="260.0" r="1.70" fill="#FFFFFF" opacity="0.25"/>
      <circle cx="456.0" cy="434.6" r="3.49" fill="#FFFFFF" opacity="0.53"/>
      <circle cx="436.7" cy="519.4" r="2.53" fill="#FFFFFF" opacity="0.25"/>
      <circle cx="450.9" cy="241.9" r="2.02" fill="#FFFFFF" opacity="0.38"/>
      <circle cx="509.6" cy="236.7" r="2.78" fill="#FFFFFF" opacity="0.28"/>
      <circle cx="561.4" cy="348.1" r="2.60" fill="#FFFFFF" opacity="0.36"/>
      <circle cx="602.6" cy="254.6" r="2.64" fill="#FFFFFF" opacity="0.28"/>
      <circle cx="442.1" cy="403.5" r="3.76" fill="#FFFFFF" opacity="0.58"/>
      <circle cx="408.5" cy="304.1" r="3.74" fill="#FFFFFF" opacity="0.25"/>
        
        <rect x="0" y="0" width="1050" height="1400" fill="url(#sheen)"/>
      </g>

      
    </g>

    <rect x="0" y="0" width="1050" height="1400" fill="url(#key)"/>
  </g>
</svg>
