<svg xmlns="http://www.w3.org/2000/svg" width="504.0" height="672.0" viewBox="273.0 196.0 504.0 672.0" role="img">
  <defs>
    <linearGradient id="cloth" x1="0.82" y1="0" x2="0.15" y2="1">
      <stop offset="0%" stop-color="#8A7080" stop-opacity="1"/>
      <stop offset="46%" stop-color="#8A7080" stop-opacity="0.82"/>
      <stop offset="100%" stop-color="#8A7080" stop-opacity="0.52"/>
    </linearGradient>
    <linearGradient id="sheen" x1="0.9" y1="0.05" x2="0.35" y2="0.95">
      <stop offset="0%" stop-color="#FFFFFF" stop-opacity="0.34"/>
      <stop offset="30%" stop-color="#FFFFFF" stop-opacity="0.06"/>
      <stop offset="62%" stop-color="#FFFFFF" stop-opacity="0.16"/>
      <stop offset="100%" stop-color="#000000" stop-opacity="0.22"/>
    </linearGradient>
    <!-- The same satin, mapped to the CANVAS instead of to each shape's own
         box. The body wears this gradient stretched across the whole frame, so
         a strap wearing it stretched across its own few pixels gets the entire
         light-to-dark run compressed into itself, and comes out darker than the
         cloth it is sewn to — آذین's wide pair read as two epaulettes. Light
         falls on a garment from one direction, not from each piece's corner.
         NOTE: no backticks in here. This comment is inside a template literal. -->
    <linearGradient id="sheen-user" gradientUnits="userSpaceOnUse" x1="945.0" y1="70.0" x2="367.5" y2="1330.0">
      <stop offset="0%" stop-color="#FFFFFF" stop-opacity="0.34"/>
      <stop offset="30%" stop-color="#FFFFFF" stop-opacity="0.06"/>
      <stop offset="62%" stop-color="#FFFFFF" stop-opacity="0.16"/>
      <stop offset="100%" stop-color="#000000" stop-opacity="0.22"/>
    </linearGradient>
    <linearGradient id="fold" x1="0" y1="0" x2="0" y2="1">
      <stop offset="0%" stop-color="#FFFFFF" stop-opacity="0.26"/>
      <stop offset="70%" stop-color="#FFFFFF" stop-opacity="0.10"/>
      <stop offset="100%" stop-color="#FFFFFF" stop-opacity="0"/>
    </linearGradient>
    <radialGradient id="key" cx="80%" cy="10%" r="92%">
      <stop offset="0%" stop-color="#FFFFFF" stop-opacity="0.13"/>
      <stop offset="55%" stop-color="#FFFFFF" stop-opacity="0.03"/>
      <stop offset="100%" stop-color="#000000" stop-opacity="0.30"/>
    </radialGradient>
    <radialGradient id="floor" cx="50%" cy="50%" r="50%">
      <stop offset="0%" stop-color="#000000" stop-opacity="0.55"/>
      <stop offset="100%" stop-color="#000000" stop-opacity="0"/>
    </radialGradient>
    <clipPath id="body"><path d="M 746.8 175.0 Q 525.0 207.8 303.2 175.0 C 321.0 490.0 372.2 560.0 379.5 616.0 C 343.1 821.8 219.4 1115.8 185.4 1351.0 Q 525.0 1400.0 864.6 1351.0 C 830.6 1115.8 706.9 821.8 670.5 616.0 C 677.8 560.0 729.0 490.0 746.8 175.0 Z"/></clipPath>
    <filter id="soften" x="-10%" y="-10%" width="120%" height="120%">
      <feGaussianBlur stdDeviation="1.68"/>
    </filter>
    <filter id="grain" x="0" y="0" width="100%" height="100%">
      <feTurbulence type="fractalNoise" baseFrequency="0.9" numOctaves="3" seed="173" result="n"/>
      <feColorMatrix type="saturate" values="0" in="n" result="g"/>
      <feComponentTransfer in="g" result="gt">
        <feFuncA type="linear" slope="0.18"/>
      </feComponentTransfer>
      <feBlend in="SourceGraphic" in2="gt" mode="overlay"/>
    </filter>
  </defs>

  <g filter="url(#grain)">
    <rect x="0" y="0" width="1050" height="1400" fill="#231017"/>

    <!-- The cloth the gown is standing on. -->
    <ellipse cx="525.0" cy="1351.0" rx="582.1" ry="44.8" fill="url(#floor)"/>

    <g filter="url(#soften)">
      
      
      <path d="M 746.8 175.0 Q 525.0 207.8 303.2 175.0 C 321.0 490.0 372.2 560.0 379.5 616.0 C 343.1 821.8 219.4 1115.8 185.4 1351.0 Q 525.0 1400.0 864.6 1351.0 C 830.6 1115.8 706.9 821.8 670.5 616.0 C 677.8 560.0 729.0 490.0 746.8 175.0 Z" fill="url(#cloth)"/>

      <g clip-path="url(#body)">
        <path d="M 422.9 630.0 C 411.1 865.9 239.1 971.9 227.3 1221.8" fill="none" stroke="url(#fold)" stroke-width="4.7" stroke-linecap="round"/>
      <path d="M 460.6 630.0 C 482.3 865.9 315.5 971.3 337.2 1221.2" fill="none" stroke="url(#fold)" stroke-width="5.0" stroke-linecap="round"/>
      <path d="M 491.9 630.0 C 481.0 865.9 439.5 1018.2 428.5 1268.1" fill="none" stroke="url(#fold)" stroke-width="5.5" stroke-linecap="round"/>
      <path d="M 526.3 630.0 C 526.7 865.9 528.4 1015.1 528.8 1265.0" fill="none" stroke="url(#fold)" stroke-width="5.1" stroke-linecap="round"/>
      <path d="M 554.8 630.0 C 530.6 865.9 636.1 974.8 611.9 1224.7" fill="none" stroke="url(#fold)" stroke-width="4.6" stroke-linecap="round"/>
      <path d="M 586.7 630.0 C 578.8 865.9 712.7 977.9 704.9 1227.8" fill="none" stroke="url(#fold)" stroke-width="8.3" stroke-linecap="round"/>
      <path d="M 622.7 630.0 C 631.5 865.9 801.2 999.8 810.0 1249.7" fill="none" stroke="url(#fold)" stroke-width="6.2" stroke-linecap="round"/>
        <circle cx="669.5" cy="843.2" r="4.41" fill="#FFFFFF" opacity="0.52"/>
      <circle cx="447.8" cy="230.4" r="3.69" fill="#FFFFFF" opacity="0.28"/>
      <circle cx="469.6" cy="1117.8" r="2.79" fill="#FFFFFF" opacity="0.54"/>
      <circle cx="785.8" cy="1291.3" r="2.78" fill="#FFFFFF" opacity="0.22"/>
      <circle cx="358.8" cy="848.7" r="3.79" fill="#FFFFFF" opacity="0.50"/>
      <circle cx="654.2" cy="1150.3" r="2.80" fill="#FFFFFF" opacity="0.54"/>
      <circle cx="589.0" cy="922.4" r="2.18" fill="#FFFFFF" opacity="0.48"/>
      <circle cx="434.8" cy="654.5" r="4.12" fill="#FFFFFF" opacity="0.22"/>
      <circle cx="526.1" cy="310.7" r="1.88" fill="#FFFFFF" opacity="0.31"/>
      <circle cx="395.9" cy="921.5" r="1.69" fill="#FFFFFF" opacity="0.37"/>
      <circle cx="413.2" cy="243.8" r="3.06" fill="#FFFFFF" opacity="0.57"/>
      <circle cx="498.4" cy="516.5" r="2.60" fill="#FFFFFF" opacity="0.52"/>
      <circle cx="453.5" cy="705.5" r="2.41" fill="#FFFFFF" opacity="0.24"/>
      <circle cx="386.0" cy="1024.0" r="2.17" fill="#FFFFFF" opacity="0.27"/>
      <circle cx="511.2" cy="731.5" r="3.73" fill="#FFFFFF" opacity="0.20"/>
      <circle cx="536.5" cy="350.8" r="3.21" fill="#FFFFFF" opacity="0.39"/>
      <circle cx="435.2" cy="214.4" r="3.54" fill="#FFFFFF" opacity="0.50"/>
      <circle cx="603.1" cy="1311.0" r="2.02" fill="#FFFFFF" opacity="0.51"/>
      <circle cx="432.6" cy="919.4" r="3.44" fill="#FFFFFF" opacity="0.37"/>
      <circle cx="715.8" cy="1054.0" r="3.91" fill="#FFFFFF" opacity="0.33"/>
      <circle cx="643.7" cy="970.7" r="2.80" fill="#FFFFFF" opacity="0.27"/>
      <circle cx="544.5" cy="367.8" r="2.70" fill="#FFFFFF" opacity="0.52"/>
      <circle cx="584.6" cy="1176.7" r="1.92" fill="#FFFFFF" opacity="0.38"/>
      <circle cx="579.6" cy="711.9" r="3.37" fill="#FFFFFF" opacity="0.35"/>
      <circle cx="519.9" cy="234.2" r="1.97" fill="#FFFFFF" opacity="0.32"/>
      <circle cx="408.9" cy="462.4" r="3.34" fill="#FFFFFF" opacity="0.31"/>
      <circle cx="637.5" cy="622.8" r="4.31" fill="#FFFFFF" opacity="0.43"/>
      <circle cx="548.5" cy="698.4" r="3.13" fill="#FFFFFF" opacity="0.56"/>
      <circle cx="420.7" cy="1082.3" r="3.95" fill="#FFFFFF" opacity="0.42"/>
      <circle cx="599.2" cy="1016.4" r="2.98" fill="#FFFFFF" opacity="0.36"/>
      <circle cx="366.2" cy="929.3" r="4.26" fill="#FFFFFF" opacity="0.25"/>
      <circle cx="430.0" cy="294.5" r="4.37" fill="#FFFFFF" opacity="0.20"/>
      <circle cx="545.1" cy="1288.1" r="3.94" fill="#FFFFFF" opacity="0.42"/>
      <circle cx="315.2" cy="1259.8" r="2.80" fill="#FFFFFF" opacity="0.54"/>
      <circle cx="420.5" cy="939.9" r="2.52" fill="#FFFFFF" opacity="0.52"/>
      <circle cx="400.1" cy="490.7" r="1.97" fill="#FFFFFF" opacity="0.29"/>
      <circle cx="452.2" cy="567.8" r="2.67" fill="#FFFFFF" opacity="0.40"/>
      <circle cx="524.9" cy="589.4" r="2.84" fill="#FFFFFF" opacity="0.43"/>
      <circle cx="443.9" cy="472.0" r="3.75" fill="#FFFFFF" opacity="0.31"/>
      <circle cx="511.3" cy="902.0" r="3.09" fill="#FFFFFF" opacity="0.20"/>
      <circle cx="621.1" cy="939.3" r="3.11" fill="#FFFFFF" opacity="0.54"/>
      <circle cx="531.5" cy="1224.1" r="4.26" fill="#FFFFFF" opacity="0.30"/>
      <circle cx="508.6" cy="676.4" r="2.29" fill="#FFFFFF" opacity="0.46"/>
      <circle cx="695.7" cy="1274.5" r="2.05" fill="#FFFFFF" opacity="0.34"/>
      <circle cx="389.2" cy="1340.7" r="1.79" fill="#FFFFFF" opacity="0.55"/>
      <circle cx="463.3" cy="527.0" r="3.33" fill="#FFFFFF" opacity="0.53"/>
      <circle cx="699.4" cy="951.2" r="3.53" fill="#FFFFFF" opacity="0.29"/>
      <circle cx="540.1" cy="696.5" r="1.74" fill="#FFFFFF" opacity="0.35"/>
      <circle cx="523.2" cy="285.1" r="1.91" fill="#FFFFFF" opacity="0.27"/>
      <circle cx="519.0" cy="548.8" r="1.89" fill="#FFFFFF" opacity="0.27"/>
      <circle cx="535.2" cy="449.5" r="4.29" fill="#FFFFFF" opacity="0.53"/>
      <circle cx="412.0" cy="252.5" r="2.11" fill="#FFFFFF" opacity="0.51"/>
      <circle cx="365.6" cy="811.8" r="1.95" fill="#FFFFFF" opacity="0.30"/>
      <circle cx="523.5" cy="350.0" r="4.03" fill="#FFFFFF" opacity="0.41"/>
      <circle cx="593.5" cy="733.1" r="3.20" fill="#FFFFFF" opacity="0.40"/>
      <circle cx="474.9" cy="1086.8" r="2.43" fill="#FFFFFF" opacity="0.41"/>
      <circle cx="427.0" cy="512.3" r="3.31" fill="#FFFFFF" opacity="0.24"/>
      <circle cx="479.4" cy="952.1" r="2.01" fill="#FFFFFF" opacity="0.27"/>
      <circle cx="665.8" cy="392.2" r="2.95" fill="#FFFFFF" opacity="0.24"/>
      <circle cx="320.0" cy="1317.7" r="3.50" fill="#FFFFFF" opacity="0.34"/>
      <circle cx="353.1" cy="1073.8" r="4.36" fill="#FFFFFF" opacity="0.50"/>
      <circle cx="732.2" cy="1104.0" r="3.00" fill="#FFFFFF" opacity="0.58"/>
      <circle cx="530.2" cy="1143.6" r="4.28" fill="#FFFFFF" opacity="0.49"/>
      <circle cx="570.5" cy="988.4" r="4.39" fill="#FFFFFF" opacity="0.31"/>
      <circle cx="421.6" cy="601.3" r="2.66" fill="#FFFFFF" opacity="0.54"/>
      <circle cx="695.8" cy="1084.9" r="4.00" fill="#FFFFFF" opacity="0.50"/>
      <circle cx="615.7" cy="1301.3" r="2.78" fill="#FFFFFF" opacity="0.38"/>
      <circle cx="500.7" cy="1277.9" r="1.97" fill="#FFFFFF" opacity="0.32"/>
      <circle cx="422.0" cy="865.0" r="2.60" fill="#FFFFFF" opacity="0.29"/>
      <circle cx="587.6" cy="767.2" r="2.28" fill="#FFFFFF" opacity="0.29"/>
      <circle cx="595.1" cy="728.0" r="2.00" fill="#FFFFFF" opacity="0.49"/>
      <circle cx="579.3" cy="267.5" r="4.01" fill="#FFFFFF" opacity="0.52"/>
      <circle cx="590.7" cy="770.4" r="4.03" fill="#FFFFFF" opacity="0.34"/>
      <circle cx="716.7" cy="1122.9" r="3.02" fill="#FFFFFF" opacity="0.29"/>
      <circle cx="349.1" cy="1193.1" r="2.02" fill="#FFFFFF" opacity="0.20"/>
      <circle cx="649.2" cy="1335.7" r="4.09" fill="#FFFFFF" opacity="0.31"/>
      <circle cx="773.9" cy="1309.5" r="1.69" fill="#FFFFFF" opacity="0.24"/>
      <circle cx="311.4" cy="1138.6" r="2.43" fill="#FFFFFF" opacity="0.37"/>
      <circle cx="492.3" cy="991.7" r="1.71" fill="#FFFFFF" opacity="0.35"/>
      <circle cx="598.6" cy="888.9" r="2.98" fill="#FFFFFF" opacity="0.48"/>
      <circle cx="515.2" cy="1327.4" r="3.87" fill="#FFFFFF" opacity="0.25"/>
      <circle cx="572.6" cy="470.2" r="3.64" fill="#FFFFFF" opacity="0.54"/>
      <circle cx="466.3" cy="1043.6" r="3.59" fill="#FFFFFF" opacity="0.20"/>
      <circle cx="390.6" cy="1348.2" r="2.62" fill="#FFFFFF" opacity="0.32"/>
      <circle cx="288.0" cy="1325.0" r="1.79" fill="#FFFFFF" opacity="0.40"/>
      <circle cx="539.9" cy="949.7" r="2.50" fill="#FFFFFF" opacity="0.39"/>
      <circle cx="404.6" cy="659.6" r="2.50" fill="#FFFFFF" opacity="0.51"/>
      <circle cx="627.4" cy="1176.2" r="2.90" fill="#FFFFFF" opacity="0.58"/>
      <circle cx="623.5" cy="373.9" r="1.91" fill="#FFFFFF" opacity="0.32"/>
      <circle cx="571.1" cy="1203.9" r="3.49" fill="#FFFFFF" opacity="0.51"/>
      <circle cx="713.3" cy="1344.6" r="4.11" fill="#FFFFFF" opacity="0.53"/>
      <circle cx="382.0" cy="975.4" r="3.86" fill="#FFFFFF" opacity="0.52"/>
      <circle cx="400.0" cy="1067.0" r="3.57" fill="#FFFFFF" opacity="0.25"/>
      <circle cx="393.2" cy="457.0" r="2.78" fill="#FFFFFF" opacity="0.29"/>
      <circle cx="559.3" cy="268.1" r="2.64" fill="#FFFFFF" opacity="0.24"/>
      <circle cx="493.6" cy="403.5" r="2.48" fill="#FFFFFF" opacity="0.55"/>
      <circle cx="435.6" cy="693.2" r="3.91" fill="#FFFFFF" opacity="0.47"/>
      <circle cx="484.6" cy="1185.6" r="4.16" fill="#FFFFFF" opacity="0.20"/>
      <circle cx="562.4" cy="955.4" r="2.13" fill="#FFFFFF" opacity="0.19"/>
      <circle cx="430.8" cy="827.8" r="3.06" fill="#FFFFFF" opacity="0.44"/>
      <circle cx="405.1" cy="780.5" r="2.84" fill="#FFFFFF" opacity="0.34"/>
      <circle cx="575.8" cy="293.4" r="2.08" fill="#FFFFFF" opacity="0.35"/>
      <circle cx="586.7" cy="1017.7" r="2.32" fill="#FFFFFF" opacity="0.50"/>
      <circle cx="409.8" cy="1091.9" r="3.06" fill="#FFFFFF" opacity="0.31"/>
      <circle cx="403.0" cy="566.2" r="2.52" fill="#FFFFFF" opacity="0.50"/>
      <circle cx="381.9" cy="949.7" r="3.02" fill="#FFFFFF" opacity="0.38"/>
      <circle cx="439.3" cy="547.3" r="3.58" fill="#FFFFFF" opacity="0.27"/>
      <circle cx="312.2" cy="1318.7" r="3.53" fill="#FFFFFF" opacity="0.54"/>
      <circle cx="524.4" cy="800.3" r="4.11" fill="#FFFFFF" opacity="0.29"/>
      <circle cx="604.4" cy="320.5" r="3.15" fill="#FFFFFF" opacity="0.42"/>
      <circle cx="375.8" cy="1328.3" r="3.65" fill="#FFFFFF" opacity="0.26"/>
      <circle cx="523.9" cy="972.9" r="3.11" fill="#FFFFFF" opacity="0.32"/>
      <circle cx="614.2" cy="659.5" r="1.85" fill="#FFFFFF" opacity="0.42"/>
      <circle cx="690.2" cy="259.1" r="4.15" fill="#FFFFFF" opacity="0.57"/>
      <circle cx="562.0" cy="307.0" r="2.65" fill="#FFFFFF" opacity="0.27"/>
      <circle cx="430.9" cy="368.0" r="2.99" fill="#FFFFFF" opacity="0.28"/>
      <circle cx="407.1" cy="402.8" r="4.29" fill="#FFFFFF" opacity="0.35"/>
      <circle cx="663.8" cy="776.8" r="1.81" fill="#FFFFFF" opacity="0.29"/>
      <circle cx="658.5" cy="283.4" r="2.48" fill="#FFFFFF" opacity="0.19"/>
      <circle cx="392.3" cy="1024.9" r="3.68" fill="#FFFFFF" opacity="0.38"/>
      <circle cx="438.9" cy="581.5" r="3.86" fill="#FFFFFF" opacity="0.53"/>
      <circle cx="521.0" cy="401.7" r="1.92" fill="#FFFFFF" opacity="0.25"/>
      <circle cx="520.6" cy="1085.1" r="3.65" fill="#FFFFFF" opacity="0.19"/>
      <circle cx="571.9" cy="290.4" r="1.76" fill="#FFFFFF" opacity="0.44"/>
      <circle cx="633.9" cy="1250.4" r="3.56" fill="#FFFFFF" opacity="0.24"/>
      <circle cx="376.5" cy="1129.4" r="3.31" fill="#FFFFFF" opacity="0.53"/>
      <circle cx="623.1" cy="1074.5" r="2.01" fill="#FFFFFF" opacity="0.18"/>
      <circle cx="374.0" cy="880.7" r="3.01" fill="#FFFFFF" opacity="0.46"/>
      <circle cx="506.2" cy="1178.2" r="2.87" fill="#FFFFFF" opacity="0.18"/>
      <circle cx="508.1" cy="745.8" r="2.87" fill="#FFFFFF" opacity="0.46"/>
      <circle cx="674.7" cy="951.6" r="1.89" fill="#FFFFFF" opacity="0.44"/>
      <circle cx="466.4" cy="907.2" r="2.78" fill="#FFFFFF" opacity="0.37"/>
      <circle cx="409.5" cy="502.7" r="2.65" fill="#FFFFFF" opacity="0.34"/>
      <circle cx="571.7" cy="1221.9" r="3.19" fill="#FFFFFF" opacity="0.44"/>
      <circle cx="475.8" cy="668.5" r="1.93" fill="#FFFFFF" opacity="0.21"/>
      <circle cx="626.0" cy="1124.1" r="1.89" fill="#FFFFFF" opacity="0.30"/>
      <circle cx="436.2" cy="1089.2" r="1.93" fill="#FFFFFF" opacity="0.57"/>
      <circle cx="691.1" cy="1036.4" r="3.87" fill="#FFFFFF" opacity="0.19"/>
      <circle cx="491.3" cy="936.4" r="2.78" fill="#FFFFFF" opacity="0.34"/>
      <circle cx="656.2" cy="694.5" r="3.38" fill="#FFFFFF" opacity="0.38"/>
      <circle cx="757.8" cy="1149.3" r="2.84" fill="#FFFFFF" opacity="0.47"/>
      <circle cx="593.0" cy="1274.8" r="3.72" fill="#FFFFFF" opacity="0.50"/>
      <circle cx="664.6" cy="1288.2" r="3.84" fill="#FFFFFF" opacity="0.30"/>
      <circle cx="499.3" cy="993.4" r="3.76" fill="#FFFFFF" opacity="0.18"/>
      <circle cx="370.2" cy="1339.9" r="1.93" fill="#FFFFFF" opacity="0.36"/>
      <circle cx="405.8" cy="247.5" r="3.01" fill="#FFFFFF" opacity="0.37"/>
      <circle cx="427.8" cy="437.2" r="2.75" fill="#FFFFFF" opacity="0.42"/>
      <circle cx="350.1" cy="226.8" r="3.49" fill="#FFFFFF" opacity="0.53"/>
      <circle cx="465.7" cy="529.5" r="3.26" fill="#FFFFFF" opacity="0.33"/>
      <circle cx="666.9" cy="737.2" r="2.92" fill="#FFFFFF" opacity="0.34"/>
      <circle cx="627.1" cy="1228.0" r="3.07" fill="#FFFFFF" opacity="0.51"/>
      <circle cx="471.4" cy="677.7" r="3.70" fill="#FFFFFF" opacity="0.54"/>
      <circle cx="609.5" cy="749.4" r="4.30" fill="#FFFFFF" opacity="0.47"/>
      <circle cx="678.4" cy="1173.3" r="2.35" fill="#FFFFFF" opacity="0.33"/>
      <circle cx="600.7" cy="663.1" r="2.85" fill="#FFFFFF" opacity="0.49"/>
      <circle cx="581.5" cy="1029.6" r="2.94" fill="#FFFFFF" opacity="0.23"/>
      <circle cx="587.4" cy="664.2" r="3.57" fill="#FFFFFF" opacity="0.26"/>
      <circle cx="557.4" cy="582.9" r="2.80" fill="#FFFFFF" opacity="0.32"/>
      <circle cx="468.1" cy="593.9" r="2.32" fill="#FFFFFF" opacity="0.19"/>
      <circle cx="335.7" cy="1316.7" r="2.15" fill="#FFFFFF" opacity="0.36"/>
      <circle cx="545.3" cy="522.5" r="2.86" fill="#FFFFFF" opacity="0.46"/>
      <circle cx="638.6" cy="1245.2" r="2.46" fill="#FFFFFF" opacity="0.51"/>
      <circle cx="491.2" cy="1191.1" r="3.34" fill="#FFFFFF" opacity="0.40"/>
      <circle cx="658.9" cy="987.0" r="4.14" fill="#FFFFFF" opacity="0.26"/>
      <circle cx="426.9" cy="219.9" r="4.00" fill="#FFFFFF" opacity="0.46"/>
      <circle cx="644.2" cy="1014.5" r="3.85" fill="#FFFFFF" opacity="0.40"/>
      <circle cx="317.9" cy="1303.7" r="3.49" fill="#FFFFFF" opacity="0.31"/>
      <circle cx="556.0" cy="408.9" r="2.15" fill="#FFFFFF" opacity="0.42"/>
      <circle cx="425.3" cy="805.6" r="2.88" fill="#FFFFFF" opacity="0.56"/>
      <circle cx="647.0" cy="566.9" r="2.42" fill="#FFFFFF" opacity="0.54"/>
      <circle cx="636.4" cy="1113.7" r="3.67" fill="#FFFFFF" opacity="0.49"/>
      <circle cx="450.5" cy="1229.8" r="3.91" fill="#FFFFFF" opacity="0.35"/>
      <circle cx="555.7" cy="249.0" r="2.59" fill="#FFFFFF" opacity="0.57"/>
      <circle cx="677.2" cy="315.1" r="2.37" fill="#FFFFFF" opacity="0.46"/>
      <circle cx="475.2" cy="1346.9" r="2.21" fill="#FFFFFF" opacity="0.34"/>
      <circle cx="335.8" cy="995.2" r="3.86" fill="#FFFFFF" opacity="0.40"/>
      <circle cx="453.6" cy="686.8" r="2.00" fill="#FFFFFF" opacity="0.46"/>
      <circle cx="669.5" cy="767.0" r="2.54" fill="#FFFFFF" opacity="0.39"/>
      <circle cx="752.7" cy="1335.4" r="2.47" fill="#FFFFFF" opacity="0.31"/>
      <circle cx="584.2" cy="395.3" r="1.68" fill="#FFFFFF" opacity="0.39"/>
      <circle cx="582.1" cy="745.4" r="3.40" fill="#FFFFFF" opacity="0.53"/>
      <circle cx="625.8" cy="588.6" r="4.06" fill="#FFFFFF" opacity="0.35"/>
      <circle cx="616.4" cy="524.6" r="4.21" fill="#FFFFFF" opacity="0.56"/>
      <circle cx="565.0" cy="1327.6" r="1.87" fill="#FFFFFF" opacity="0.19"/>
      <circle cx="481.1" cy="491.9" r="3.87" fill="#FFFFFF" opacity="0.50"/>
      <circle cx="479.5" cy="406.6" r="4.38" fill="#FFFFFF" opacity="0.37"/>
      <circle cx="584.8" cy="1128.0" r="3.02" fill="#FFFFFF" opacity="0.31"/>
      <circle cx="410.0" cy="367.8" r="2.22" fill="#FFFFFF" opacity="0.41"/>
      <circle cx="507.3" cy="644.8" r="2.87" fill="#FFFFFF" opacity="0.49"/>
      <circle cx="579.5" cy="871.5" r="2.21" fill="#FFFFFF" opacity="0.29"/>
      <circle cx="557.8" cy="449.7" r="3.50" fill="#FFFFFF" opacity="0.53"/>
      <circle cx="437.8" cy="608.5" r="4.29" fill="#FFFFFF" opacity="0.19"/>
      <circle cx="438.4" cy="636.5" r="1.79" fill="#FFFFFF" opacity="0.47"/>
      <circle cx="387.0" cy="719.8" r="2.52" fill="#FFFFFF" opacity="0.39"/>
      <circle cx="407.4" cy="427.3" r="2.34" fill="#FFFFFF" opacity="0.56"/>
      <circle cx="580.2" cy="538.1" r="1.96" fill="#FFFFFF" opacity="0.22"/>
      <circle cx="626.6" cy="1268.5" r="3.43" fill="#FFFFFF" opacity="0.47"/>
      <circle cx="524.7" cy="577.1" r="2.29" fill="#FFFFFF" opacity="0.43"/>
      <circle cx="497.3" cy="1102.6" r="4.20" fill="#FFFFFF" opacity="0.28"/>
      <circle cx="470.6" cy="1287.1" r="2.73" fill="#FFFFFF" opacity="0.19"/>
      <circle cx="474.5" cy="477.8" r="3.26" fill="#FFFFFF" opacity="0.43"/>
      <circle cx="377.5" cy="1021.0" r="3.73" fill="#FFFFFF" opacity="0.28"/>
      <circle cx="349.2" cy="980.6" r="2.09" fill="#FFFFFF" opacity="0.40"/>
      <circle cx="386.6" cy="1247.6" r="2.68" fill="#FFFFFF" opacity="0.57"/>
      <circle cx="501.9" cy="583.6" r="2.61" fill="#FFFFFF" opacity="0.37"/>
      <circle cx="649.1" cy="643.4" r="2.79" fill="#FFFFFF" opacity="0.50"/>
      <circle cx="541.7" cy="831.7" r="4.15" fill="#FFFFFF" opacity="0.26"/>
      <circle cx="644.5" cy="1023.2" r="2.31" fill="#FFFFFF" opacity="0.51"/>
      <circle cx="531.1" cy="610.5" r="2.67" fill="#FFFFFF" opacity="0.28"/>
      <circle cx="395.8" cy="1001.5" r="2.34" fill="#FFFFFF" opacity="0.23"/>
      <circle cx="581.1" cy="606.9" r="3.12" fill="#FFFFFF" opacity="0.44"/>
      <circle cx="448.5" cy="344.5" r="3.30" fill="#FFFFFF" opacity="0.38"/>
      <circle cx="523.3" cy="1238.8" r="3.97" fill="#FFFFFF" opacity="0.31"/>
      <circle cx="763.5" cy="1236.9" r="3.45" fill="#FFFFFF" opacity="0.57"/>
      <circle cx="600.2" cy="944.7" r="3.11" fill="#FFFFFF" opacity="0.21"/>
      <circle cx="528.8" cy="723.4" r="2.55" fill="#FFFFFF" opacity="0.46"/>
      <circle cx="513.7" cy="571.4" r="3.17" fill="#FFFFFF" opacity="0.20"/>
      <circle cx="621.1" cy="729.4" r="2.13" fill="#FFFFFF" opacity="0.41"/>
      <circle cx="720.0" cy="1233.1" r="2.74" fill="#FFFFFF" opacity="0.53"/>
      <circle cx="345.9" cy="1219.9" r="2.60" fill="#FFFFFF" opacity="0.31"/>
      <circle cx="671.1" cy="232.5" r="3.43" fill="#FFFFFF" opacity="0.29"/>
      <circle cx="528.0" cy="604.9" r="2.51" fill="#FFFFFF" opacity="0.27"/>
      <circle cx="362.6" cy="1117.2" r="2.78" fill="#FFFFFF" opacity="0.30"/>
      <circle cx="544.2" cy="1096.9" r="2.88" fill="#FFFFFF" opacity="0.26"/>
      <circle cx="671.0" cy="1134.6" r="3.00" fill="#FFFFFF" opacity="0.20"/>
      <circle cx="417.2" cy="649.3" r="2.65" fill="#FFFFFF" opacity="0.51"/>
      <circle cx="623.9" cy="857.5" r="2.92" fill="#FFFFFF" opacity="0.58"/>
      <circle cx="783.3" cy="1327.1" r="1.97" fill="#FFFFFF" opacity="0.39"/>
      <circle cx="560.3" cy="392.9" r="2.91" fill="#FFFFFF" opacity="0.57"/>
      <circle cx="680.5" cy="815.6" r="2.20" fill="#FFFFFF" opacity="0.38"/>
      <circle cx="568.9" cy="540.7" r="4.01" fill="#FFFFFF" opacity="0.38"/>
      <circle cx="560.0" cy="359.6" r="2.56" fill="#FFFFFF" opacity="0.34"/>
      <circle cx="464.4" cy="868.1" r="3.69" fill="#FFFFFF" opacity="0.56"/>
      <circle cx="419.2" cy="434.5" r="1.93" fill="#FFFFFF" opacity="0.22"/>
      <circle cx="445.2" cy="438.3" r="2.07" fill="#FFFFFF" opacity="0.55"/>
      <circle cx="568.5" cy="218.6" r="2.69" fill="#FFFFFF" opacity="0.39"/>
      <circle cx="566.9" cy="1193.6" r="2.16" fill="#FFFFFF" opacity="0.43"/>
      <circle cx="695.4" cy="869.4" r="3.21" fill="#FFFFFF" opacity="0.47"/>
      <circle cx="548.8" cy="217.9" r="4.15" fill="#FFFFFF" opacity="0.34"/>
      <circle cx="395.3" cy="1122.2" r="3.48" fill="#FFFFFF" opacity="0.43"/>
      <circle cx="588.9" cy="725.5" r="1.84" fill="#FFFFFF" opacity="0.21"/>
      <circle cx="543.8" cy="1283.0" r="2.01" fill="#FFFFFF" opacity="0.34"/>
      <circle cx="526.6" cy="449.2" r="3.26" fill="#FFFFFF" opacity="0.48"/>
      <circle cx="584.9" cy="693.2" r="3.15" fill="#FFFFFF" opacity="0.25"/>
      <circle cx="660.5" cy="1050.2" r="4.23" fill="#FFFFFF" opacity="0.26"/>
      <circle cx="488.5" cy="1291.9" r="2.06" fill="#FFFFFF" opacity="0.41"/>
      <circle cx="563.7" cy="667.5" r="2.44" fill="#FFFFFF" opacity="0.54"/>
      <circle cx="587.7" cy="1205.9" r="1.94" fill="#FFFFFF" opacity="0.47"/>
      <circle cx="588.2" cy="602.2" r="2.83" fill="#FFFFFF" opacity="0.35"/>
      <circle cx="269.1" cy="1325.6" r="3.41" fill="#FFFFFF" opacity="0.46"/>
      <circle cx="504.5" cy="879.8" r="3.30" fill="#FFFFFF" opacity="0.43"/>
      <circle cx="575.7" cy="760.6" r="4.36" fill="#FFFFFF" opacity="0.46"/>
      <circle cx="470.7" cy="763.8" r="1.78" fill="#FFFFFF" opacity="0.26"/>
      <circle cx="513.5" cy="689.1" r="1.93" fill="#FFFFFF" opacity="0.48"/>
      <circle cx="445.2" cy="775.9" r="2.80" fill="#FFFFFF" opacity="0.57"/>
      <circle cx="623.6" cy="530.7" r="2.28" fill="#FFFFFF" opacity="0.52"/>
      <circle cx="442.6" cy="483.1" r="4.38" fill="#FFFFFF" opacity="0.42"/>
      <circle cx="583.0" cy="217.7" r="2.43" fill="#FFFFFF" opacity="0.51"/>
      <circle cx="459.2" cy="1235.2" r="3.63" fill="#FFFFFF" opacity="0.55"/>
      <circle cx="559.3" cy="529.1" r="1.73" fill="#FFFFFF" opacity="0.48"/>
      <circle cx="334.1" cy="1225.3" r="1.70" fill="#FFFFFF" opacity="0.51"/>
      <circle cx="520.4" cy="339.7" r="1.79" fill="#FFFFFF" opacity="0.48"/>
      <circle cx="365.0" cy="1241.1" r="2.84" fill="#FFFFFF" opacity="0.51"/>
      <circle cx="639.1" cy="1115.3" r="3.27" fill="#FFFFFF" opacity="0.40"/>
      <circle cx="623.6" cy="443.0" r="2.05" fill="#FFFFFF" opacity="0.53"/>
      <circle cx="602.0" cy="287.3" r="2.08" fill="#FFFFFF" opacity="0.39"/>
      <circle cx="430.4" cy="536.3" r="2.17" fill="#FFFFFF" opacity="0.22"/>
      <circle cx="539.7" cy="1057.7" r="4.22" fill="#FFFFFF" opacity="0.31"/>
      <circle cx="414.2" cy="1119.2" r="3.22" fill="#FFFFFF" opacity="0.55"/>
      <circle cx="435.9" cy="751.1" r="1.86" fill="#FFFFFF" opacity="0.18"/>
      <circle cx="682.0" cy="1128.8" r="2.13" fill="#FFFFFF" opacity="0.47"/>
      <circle cx="703.7" cy="1337.0" r="3.57" fill="#FFFFFF" opacity="0.50"/>
      <circle cx="515.5" cy="646.1" r="2.86" fill="#FFFFFF" opacity="0.22"/>
      <circle cx="618.6" cy="795.2" r="3.86" fill="#FFFFFF" opacity="0.34"/>
      <circle cx="409.1" cy="763.6" r="4.20" fill="#FFFFFF" opacity="0.50"/>
      <circle cx="369.9" cy="912.2" r="4.24" fill="#FFFFFF" opacity="0.51"/>
      <circle cx="615.8" cy="367.8" r="3.42" fill="#FFFFFF" opacity="0.55"/>
      <circle cx="538.4" cy="511.6" r="3.57" fill="#FFFFFF" opacity="0.51"/>
      <circle cx="296.7" cy="1316.5" r="2.13" fill="#FFFFFF" opacity="0.23"/>
      <circle cx="504.0" cy="523.9" r="4.39" fill="#FFFFFF" opacity="0.56"/>
      <circle cx="741.1" cy="1346.7" r="3.47" fill="#FFFFFF" opacity="0.53"/>
      <circle cx="595.6" cy="231.0" r="2.34" fill="#FFFFFF" opacity="0.56"/>
      <circle cx="380.0" cy="1117.4" r="3.27" fill="#FFFFFF" opacity="0.48"/>
      <circle cx="590.9" cy="756.8" r="2.31" fill="#FFFFFF" opacity="0.19"/>
      <circle cx="676.5" cy="1278.9" r="2.63" fill="#FFFFFF" opacity="0.57"/>
      <circle cx="613.1" cy="881.8" r="4.15" fill="#FFFFFF" opacity="0.36"/>
      <circle cx="434.9" cy="1049.0" r="3.50" fill="#FFFFFF" opacity="0.42"/>
      <circle cx="594.5" cy="1250.7" r="4.14" fill="#FFFFFF" opacity="0.48"/>
      <circle cx="635.8" cy="592.4" r="3.82" fill="#FFFFFF" opacity="0.32"/>
      <circle cx="537.3" cy="904.7" r="4.21" fill="#FFFFFF" opacity="0.42"/>
      <circle cx="601.4" cy="313.6" r="3.07" fill="#FFFFFF" opacity="0.54"/>
      <circle cx="606.4" cy="1058.8" r="4.24" fill="#FFFFFF" opacity="0.24"/>
      <circle cx="482.2" cy="510.1" r="1.78" fill="#FFFFFF" opacity="0.50"/>
      <circle cx="416.2" cy="1203.3" r="2.05" fill="#FFFFFF" opacity="0.54"/>
      <circle cx="480.7" cy="235.4" r="3.37" fill="#FFFFFF" opacity="0.53"/>
      <circle cx="431.8" cy="1302.9" r="3.79" fill="#FFFFFF" opacity="0.30"/>
      <circle cx="521.2" cy="1112.6" r="1.70" fill="#FFFFFF" opacity="0.31"/>
      <circle cx="585.4" cy="911.2" r="3.78" fill="#FFFFFF" opacity="0.43"/>
      <circle cx="610.5" cy="1175.8" r="3.70" fill="#FFFFFF" opacity="0.28"/>
      <circle cx="705.6" cy="939.8" r="2.08" fill="#FFFFFF" opacity="0.48"/>
        
        <rect x="0" y="0" width="1050" height="1400" fill="url(#sheen)"/>
      </g>

      <path d="M 746.8 313.6 C 739.6 147.3 737.3 133.4 715.7 105.7 L 643.6 105.7 C 665.3 133.4 653.1 147.3 660.3 313.6 Z" fill="#8A7080"/><path d="M 746.8 313.6 C 739.6 147.3 737.3 133.4 715.7 105.7 L 643.6 105.7 C 665.3 133.4 653.1 147.3 660.3 313.6 Z" fill="url(#sheen-user)"/>
      <path d="M 303.2 313.6 C 310.4 147.3 312.7 133.4 334.3 105.7 L 406.4 105.7 C 384.7 133.4 396.9 147.3 389.7 313.6 Z" fill="#8A7080"/><path d="M 303.2 313.6 C 310.4 147.3 312.7 133.4 334.3 105.7 L 406.4 105.7 C 384.7 133.4 396.9 147.3 389.7 313.6 Z" fill="url(#sheen-user)"/>
    </g>

    <rect x="0" y="0" width="1050" height="1400" fill="url(#key)"/>
  </g>
</svg>
