<svg xmlns="http://www.w3.org/2000/svg" width="1600.0" height="1200.0" viewBox="0.0 0.0 1600.0 1200.0" role="img">
  <defs>
    <linearGradient id="cloth" x1="0.82" y1="0" x2="0.15" y2="1">
      <stop offset="0%" stop-color="#DCD6CA" stop-opacity="1"/>
      <stop offset="46%" stop-color="#DCD6CA" stop-opacity="0.82"/>
      <stop offset="100%" stop-color="#DCD6CA" stop-opacity="0.52"/>
    </linearGradient>
    <linearGradient id="sheen" x1="0.9" y1="0.05" x2="0.35" y2="0.95">
      <stop offset="0%" stop-color="#FFFFFF" stop-opacity="0.34"/>
      <stop offset="30%" stop-color="#FFFFFF" stop-opacity="0.06"/>
      <stop offset="62%" stop-color="#FFFFFF" stop-opacity="0.16"/>
      <stop offset="100%" stop-color="#000000" stop-opacity="0.22"/>
    </linearGradient>
    <!-- The same satin, mapped to the CANVAS instead of to each shape's own
         box. The body wears this gradient stretched across the whole frame, so
         a strap wearing it stretched across its own few pixels gets the entire
         light-to-dark run compressed into itself, and comes out darker than the
         cloth it is sewn to — آذین's wide pair read as two epaulettes. Light
         falls on a garment from one direction, not from each piece's corner.
         NOTE: no backticks in here. This comment is inside a template literal. -->
    <linearGradient id="sheen-user" gradientUnits="userSpaceOnUse" x1="1440.0" y1="60.0" x2="560.0" y2="1140.0">
      <stop offset="0%" stop-color="#FFFFFF" stop-opacity="0.34"/>
      <stop offset="30%" stop-color="#FFFFFF" stop-opacity="0.06"/>
      <stop offset="62%" stop-color="#FFFFFF" stop-opacity="0.16"/>
      <stop offset="100%" stop-color="#000000" stop-opacity="0.22"/>
    </linearGradient>
    <linearGradient id="fold" x1="0" y1="0" x2="0" y2="1">
      <stop offset="0%" stop-color="#FFFFFF" stop-opacity="0.26"/>
      <stop offset="70%" stop-color="#FFFFFF" stop-opacity="0.10"/>
      <stop offset="100%" stop-color="#FFFFFF" stop-opacity="0"/>
    </linearGradient>
    <radialGradient id="key" cx="80%" cy="10%" r="92%">
      <stop offset="0%" stop-color="#FFFFFF" stop-opacity="0.13"/>
      <stop offset="55%" stop-color="#FFFFFF" stop-opacity="0.03"/>
      <stop offset="100%" stop-color="#000000" stop-opacity="0.30"/>
    </radialGradient>
    <radialGradient id="floor" cx="50%" cy="50%" r="50%">
      <stop offset="0%" stop-color="#000000" stop-opacity="0.55"/>
      <stop offset="100%" stop-color="#000000" stop-opacity="0"/>
    </radialGradient>
    <clipPath id="body"><path d="M 972.3 150.0 C 941.3 212.6 851.7 219.1 800.0 171.6 C 748.3 219.1 658.7 212.6 627.7 150.0 C 641.5 420.0 675.3 480.0 681.2 528.0 C 651.5 696.3 559.4 936.8 532.7 1129.2 Q 800.0 1171.2 1067.3 1129.2 C 1040.6 936.8 948.5 696.3 918.8 528.0 C 924.7 480.0 958.5 420.0 972.3 150.0 Z"/></clipPath>
    <filter id="soften" x="-10%" y="-10%" width="120%" height="120%">
      <feGaussianBlur stdDeviation="2.56"/>
    </filter>
    <filter id="grain" x="0" y="0" width="100%" height="100%">
      <feTurbulence type="fractalNoise" baseFrequency="0.9" numOctaves="3" seed="7" result="n"/>
      <feColorMatrix type="saturate" values="0" in="n" result="g"/>
      <feComponentTransfer in="g" result="gt">
        <feFuncA type="linear" slope="0.18"/>
      </feComponentTransfer>
      <feBlend in="SourceGraphic" in2="gt" mode="overlay"/>
    </filter>
  </defs>

  <g filter="url(#grain)">
    <rect x="0" y="0" width="1600" height="1200" fill="#12131A"/>

    <!-- The cloth the gown is standing on. -->
    <ellipse cx="800.0" cy="1158.0" rx="499.0" ry="38.4" fill="url(#floor)"/>

    <g filter="url(#soften)">
      <path d="M 653.0 1069.2 C 492.6 1117.2 439.1 1143.6 506.0 1160.4 C 599.5 1172.4 719.8 1165.2 800.0 1150.8 Z" fill="#DCD6CA" opacity="0.55"/>
      
      <path d="M 972.3 150.0 C 941.3 212.6 851.7 219.1 800.0 171.6 C 748.3 219.1 658.7 212.6 627.7 150.0 C 641.5 420.0 675.3 480.0 681.2 528.0 C 651.5 696.3 559.4 936.8 532.7 1129.2 Q 800.0 1171.2 1067.3 1129.2 C 1040.6 936.8 948.5 696.3 918.8 528.0 C 924.7 480.0 958.5 420.0 972.3 150.0 Z" fill="url(#cloth)"/>

      <g clip-path="url(#body)">
        <path d="M 716.1 540.0 C 725.1 732.4 554.9 823.9 563.9 1028.3" fill="none" stroke="url(#fold)" stroke-width="15.3" stroke-linecap="round"/>
      <path d="M 741.4 540.0 C 730.3 732.4 646.3 828.7 635.2 1033.1" fill="none" stroke="url(#fold)" stroke-width="6.9" stroke-linecap="round"/>
      <path d="M 768.7 540.0 C 806.6 732.4 674.3 817.9 712.1 1022.3" fill="none" stroke="url(#fold)" stroke-width="11.5" stroke-linecap="round"/>
      <path d="M 799.5 540.0 C 807.9 732.4 790.3 854.6 798.7 1059.0" fill="none" stroke="url(#fold)" stroke-width="13.9" stroke-linecap="round"/>
      <path d="M 829.8 540.0 C 827.7 732.4 885.9 865.6 883.9 1070.0" fill="none" stroke="url(#fold)" stroke-width="14.6" stroke-linecap="round"/>
      <path d="M 853.0 540.0 C 820.4 732.4 981.7 860.2 949.1 1064.6" fill="none" stroke="url(#fold)" stroke-width="13.6" stroke-linecap="round"/>
      <path d="M 884.6 540.0 C 858.9 732.4 1063.7 870.6 1038.0 1075.0" fill="none" stroke="url(#fold)" stroke-width="15.8" stroke-linecap="round"/>
        <circle cx="787.7" cy="217.2" r="4.46" fill="#FFFFFF" opacity="0.22"/>
      <circle cx="833.1" cy="214.4" r="5.77" fill="#FFFFFF" opacity="0.21"/>
      <circle cx="897.8" cy="388.4" r="3.67" fill="#FFFFFF" opacity="0.42"/>
      <circle cx="752.9" cy="298.9" r="4.69" fill="#FFFFFF" opacity="0.46"/>
      <circle cx="712.7" cy="283.7" r="6.20" fill="#FFFFFF" opacity="0.43"/>
      <circle cx="923.7" cy="308.3" r="4.58" fill="#FFFFFF" opacity="0.25"/>
      <circle cx="909.5" cy="263.8" r="5.01" fill="#FFFFFF" opacity="0.38"/>
      <circle cx="782.4" cy="235.9" r="3.30" fill="#FFFFFF" opacity="0.18"/>
      <circle cx="857.7" cy="418.8" r="3.16" fill="#FFFFFF" opacity="0.40"/>
      <circle cx="883.2" cy="436.6" r="4.10" fill="#FFFFFF" opacity="0.34"/>
      <circle cx="874.4" cy="400.0" r="4.66" fill="#FFFFFF" opacity="0.37"/>
      <circle cx="897.7" cy="452.1" r="3.91" fill="#FFFFFF" opacity="0.53"/>
      <circle cx="741.1" cy="247.3" r="6.51" fill="#FFFFFF" opacity="0.47"/>
      <circle cx="681.7" cy="247.9" r="3.78" fill="#FFFFFF" opacity="0.51"/>
      <circle cx="737.5" cy="443.0" r="4.68" fill="#FFFFFF" opacity="0.48"/>
      <circle cx="758.2" cy="321.7" r="4.03" fill="#FFFFFF" opacity="0.26"/>
      <circle cx="739.1" cy="482.3" r="5.38" fill="#FFFFFF" opacity="0.46"/>
      <circle cx="743.6" cy="329.9" r="4.74" fill="#FFFFFF" opacity="0.31"/>
      <circle cx="768.8" cy="209.6" r="4.50" fill="#FFFFFF" opacity="0.48"/>
      <circle cx="856.7" cy="479.0" r="3.52" fill="#FFFFFF" opacity="0.45"/>
      <circle cx="702.0" cy="381.1" r="5.65" fill="#FFFFFF" opacity="0.51"/>
      <circle cx="882.1" cy="373.2" r="2.80" fill="#FFFFFF" opacity="0.48"/>
      <circle cx="921.0" cy="328.2" r="6.35" fill="#FFFFFF" opacity="0.26"/>
      <circle cx="889.6" cy="273.8" r="5.94" fill="#FFFFFF" opacity="0.57"/>
      <circle cx="706.3" cy="511.1" r="6.24" fill="#FFFFFF" opacity="0.28"/>
      <circle cx="749.1" cy="521.1" r="6.41" fill="#FFFFFF" opacity="0.51"/>
      <circle cx="814.1" cy="403.3" r="4.11" fill="#FFFFFF" opacity="0.25"/>
      <circle cx="662.7" cy="183.5" r="3.12" fill="#FFFFFF" opacity="0.49"/>
      <circle cx="763.3" cy="205.0" r="4.60" fill="#FFFFFF" opacity="0.58"/>
      <circle cx="814.3" cy="240.9" r="4.67" fill="#FFFFFF" opacity="0.34"/>
      <circle cx="696.1" cy="364.5" r="5.38" fill="#FFFFFF" opacity="0.27"/>
      <circle cx="722.0" cy="330.5" r="5.67" fill="#FFFFFF" opacity="0.48"/>
      <circle cx="706.2" cy="326.8" r="6.35" fill="#FFFFFF" opacity="0.21"/>
      <circle cx="719.7" cy="381.7" r="6.08" fill="#FFFFFF" opacity="0.33"/>
      <circle cx="791.5" cy="400.4" r="3.68" fill="#FFFFFF" opacity="0.32"/>
      <circle cx="756.1" cy="415.5" r="2.62" fill="#FFFFFF" opacity="0.50"/>
      <circle cx="823.4" cy="373.0" r="5.74" fill="#FFFFFF" opacity="0.39"/>
      <circle cx="724.1" cy="276.1" r="6.53" fill="#FFFFFF" opacity="0.50"/>
      <circle cx="751.1" cy="184.0" r="4.72" fill="#FFFFFF" opacity="0.20"/>
      <circle cx="897.0" cy="359.6" r="4.34" fill="#FFFFFF" opacity="0.55"/>
      <circle cx="937.9" cy="176.7" r="3.58" fill="#FFFFFF" opacity="0.35"/>
      <circle cx="749.2" cy="505.5" r="3.13" fill="#FFFFFF" opacity="0.56"/>
      <circle cx="754.4" cy="222.6" r="2.70" fill="#FFFFFF" opacity="0.40"/>
      <circle cx="848.5" cy="237.8" r="6.41" fill="#FFFFFF" opacity="0.35"/>
      <circle cx="902.8" cy="194.9" r="4.45" fill="#FFFFFF" opacity="0.19"/>
      <circle cx="858.0" cy="356.1" r="3.76" fill="#FFFFFF" opacity="0.34"/>
      <circle cx="884.1" cy="375.5" r="6.62" fill="#FFFFFF" opacity="0.43"/>
      <circle cx="666.5" cy="212.4" r="3.38" fill="#FFFFFF" opacity="0.56"/>
      <circle cx="871.7" cy="380.2" r="5.44" fill="#FFFFFF" opacity="0.47"/>
      <circle cx="842.2" cy="230.5" r="3.50" fill="#FFFFFF" opacity="0.20"/>
      <circle cx="811.2" cy="495.1" r="4.09" fill="#FFFFFF" opacity="0.53"/>
      <circle cx="813.7" cy="466.8" r="2.58" fill="#FFFFFF" opacity="0.34"/>
      <circle cx="886.2" cy="468.5" r="5.83" fill="#FFFFFF" opacity="0.29"/>
      <circle cx="701.6" cy="519.0" r="6.63" fill="#FFFFFF" opacity="0.27"/>
      <circle cx="888.1" cy="360.9" r="4.28" fill="#FFFFFF" opacity="0.44"/>
      <circle cx="876.1" cy="431.4" r="4.57" fill="#FFFFFF" opacity="0.28"/>
      <circle cx="769.5" cy="266.5" r="4.18" fill="#FFFFFF" opacity="0.47"/>
      <circle cx="780.9" cy="471.5" r="3.06" fill="#FFFFFF" opacity="0.47"/>
      <circle cx="839.4" cy="321.4" r="5.91" fill="#FFFFFF" opacity="0.25"/>
      <circle cx="853.9" cy="486.6" r="4.49" fill="#FFFFFF" opacity="0.35"/>
      <circle cx="697.9" cy="293.4" r="3.85" fill="#FFFFFF" opacity="0.36"/>
      <circle cx="851.1" cy="255.1" r="2.85" fill="#FFFFFF" opacity="0.52"/>
      <circle cx="840.8" cy="519.1" r="2.70" fill="#FFFFFF" opacity="0.42"/>
      <circle cx="733.0" cy="480.8" r="5.83" fill="#FFFFFF" opacity="0.32"/>
      <circle cx="712.4" cy="298.6" r="5.91" fill="#FFFFFF" opacity="0.33"/>
      <circle cx="776.4" cy="179.5" r="4.24" fill="#FFFFFF" opacity="0.38"/>
      <circle cx="761.0" cy="470.5" r="5.49" fill="#FFFFFF" opacity="0.21"/>
      <circle cx="794.3" cy="372.1" r="5.05" fill="#FFFFFF" opacity="0.26"/>
      <circle cx="784.3" cy="257.2" r="6.33" fill="#FFFFFF" opacity="0.53"/>
      <circle cx="783.6" cy="277.0" r="3.32" fill="#FFFFFF" opacity="0.28"/>
      <circle cx="878.1" cy="415.7" r="6.11" fill="#FFFFFF" opacity="0.49"/>
      <circle cx="728.7" cy="515.9" r="5.42" fill="#FFFFFF" opacity="0.47"/>
      <circle cx="725.6" cy="303.7" r="5.60" fill="#FFFFFF" opacity="0.55"/>
      <circle cx="796.2" cy="235.8" r="3.56" fill="#FFFFFF" opacity="0.34"/>
      <circle cx="750.7" cy="189.9" r="3.62" fill="#FFFFFF" opacity="0.56"/>
      <circle cx="742.2" cy="182.2" r="5.78" fill="#FFFFFF" opacity="0.37"/>
      <circle cx="824.4" cy="311.4" r="5.82" fill="#FFFFFF" opacity="0.25"/>
      <circle cx="851.5" cy="395.9" r="4.73" fill="#FFFFFF" opacity="0.19"/>
      <circle cx="917.2" cy="219.1" r="5.60" fill="#FFFFFF" opacity="0.23"/>
      <circle cx="745.0" cy="321.6" r="6.07" fill="#FFFFFF" opacity="0.51"/>
      <circle cx="732.9" cy="180.5" r="3.76" fill="#FFFFFF" opacity="0.56"/>
      <circle cx="751.6" cy="266.3" r="4.11" fill="#FFFFFF" opacity="0.20"/>
      <circle cx="831.3" cy="392.0" r="4.52" fill="#FFFFFF" opacity="0.57"/>
      <circle cx="725.4" cy="312.8" r="4.40" fill="#FFFFFF" opacity="0.19"/>
      <circle cx="875.9" cy="479.3" r="4.55" fill="#FFFFFF" opacity="0.30"/>
      <circle cx="923.0" cy="229.2" r="6.16" fill="#FFFFFF" opacity="0.28"/>
      <circle cx="852.6" cy="347.1" r="3.99" fill="#FFFFFF" opacity="0.37"/>
      <circle cx="802.9" cy="374.2" r="6.70" fill="#FFFFFF" opacity="0.27"/>
      <circle cx="850.7" cy="254.0" r="6.41" fill="#FFFFFF" opacity="0.25"/>
      <circle cx="797.0" cy="411.2" r="3.03" fill="#FFFFFF" opacity="0.37"/>
      <circle cx="767.4" cy="468.5" r="3.39" fill="#FFFFFF" opacity="0.19"/>
      <circle cx="813.9" cy="435.4" r="3.08" fill="#FFFFFF" opacity="0.43"/>
      <circle cx="736.1" cy="502.3" r="6.10" fill="#FFFFFF" opacity="0.34"/>
      <circle cx="776.8" cy="263.0" r="4.95" fill="#FFFFFF" opacity="0.39"/>
      <circle cx="715.0" cy="403.8" r="3.39" fill="#FFFFFF" opacity="0.33"/>
      <circle cx="726.3" cy="425.2" r="6.54" fill="#FFFFFF" opacity="0.36"/>
      <circle cx="801.6" cy="213.0" r="4.33" fill="#FFFFFF" opacity="0.46"/>
      <circle cx="795.6" cy="263.2" r="4.08" fill="#FFFFFF" opacity="0.31"/>
      <circle cx="839.1" cy="413.5" r="3.02" fill="#FFFFFF" opacity="0.50"/>
      <circle cx="704.1" cy="204.9" r="4.35" fill="#FFFFFF" opacity="0.20"/>
      <circle cx="695.2" cy="193.5" r="2.95" fill="#FFFFFF" opacity="0.54"/>
      <circle cx="747.9" cy="435.6" r="4.98" fill="#FFFFFF" opacity="0.55"/>
      <circle cx="718.2" cy="242.6" r="5.20" fill="#FFFFFF" opacity="0.23"/>
      <circle cx="921.3" cy="209.8" r="5.14" fill="#FFFFFF" opacity="0.19"/>
      <circle cx="770.0" cy="525.9" r="6.26" fill="#FFFFFF" opacity="0.51"/>
      <circle cx="843.6" cy="283.2" r="5.06" fill="#FFFFFF" opacity="0.45"/>
      <circle cx="904.3" cy="470.3" r="5.50" fill="#FFFFFF" opacity="0.48"/>
      <circle cx="705.0" cy="321.4" r="2.72" fill="#FFFFFF" opacity="0.23"/>
      <circle cx="881.7" cy="500.1" r="5.60" fill="#FFFFFF" opacity="0.37"/>
      <circle cx="814.2" cy="491.6" r="4.24" fill="#FFFFFF" opacity="0.23"/>
      <circle cx="705.7" cy="319.7" r="5.95" fill="#FFFFFF" opacity="0.50"/>
      <circle cx="888.9" cy="508.5" r="6.54" fill="#FFFFFF" opacity="0.39"/>
      <circle cx="800.9" cy="317.5" r="5.69" fill="#FFFFFF" opacity="0.22"/>
      <circle cx="755.8" cy="384.7" r="6.20" fill="#FFFFFF" opacity="0.25"/>
      <circle cx="872.2" cy="423.2" r="3.87" fill="#FFFFFF" opacity="0.21"/>
      <circle cx="911.6" cy="406.8" r="5.51" fill="#FFFFFF" opacity="0.45"/>
      <circle cx="772.3" cy="316.9" r="5.09" fill="#FFFFFF" opacity="0.24"/>
      <circle cx="749.7" cy="336.3" r="3.11" fill="#FFFFFF" opacity="0.26"/>
      <circle cx="730.6" cy="278.3" r="5.62" fill="#FFFFFF" opacity="0.27"/>
      <circle cx="839.8" cy="315.0" r="2.63" fill="#FFFFFF" opacity="0.39"/>
        
        <rect x="0" y="0" width="1600" height="1200" fill="url(#sheen)"/>
      </g>

      <path d="M 972.3 268.8 C 969.9 126.2 955.3 114.4 948.1 90.6 L 924.4 90.6 C 931.5 114.4 941.4 126.2 943.7 268.8 Z" fill="#DCD6CA"/><path d="M 972.3 268.8 C 969.9 126.2 955.3 114.4 948.1 90.6 L 924.4 90.6 C 931.5 114.4 941.4 126.2 943.7 268.8 Z" fill="url(#sheen-user)"/>
      <path d="M 627.7 268.8 C 630.1 126.2 644.7 114.4 651.9 90.6 L 675.6 90.6 C 668.5 114.4 658.6 126.2 656.3 268.8 Z" fill="#DCD6CA"/><path d="M 627.7 268.8 C 630.1 126.2 644.7 114.4 651.9 90.6 L 675.6 90.6 C 668.5 114.4 658.6 126.2 656.3 268.8 Z" fill="url(#sheen-user)"/>
    </g>

    <rect x="0" y="0" width="1600" height="1200" fill="url(#key)"/>
  </g>
</svg>
